<svg width="97" height="89" viewBox="0 0 97 89" fill="none" xmlns="http://www.w3.org/2000/svg">
<g clip-path="url(#clip0_277_14)">
<path d="M90.6261 54.088L78.7361 57.8169C78.4092 57.9398 78.1641 58.2266 78.1641 58.5954C78.1641 59.6608 78.2049 61.7915 78.2049 62.6111C78.2049 62.775 78.3275 62.9389 78.4909 63.0208L90.6261 66.7906C90.9122 66.8726 91.1573 66.6677 91.1573 66.3808V54.4978C91.1573 54.211 90.8713 54.0061 90.6261 54.088Z" fill="#2A78FB"/>
<path d="M96.9591 41.6315C95.243 39.4598 93.2818 37.4519 91.1571 35.69C90.2582 34.9114 89.2776 34.1738 88.297 33.4772C88.0927 33.3133 87.8475 33.1494 87.6432 33.0265C86.54 32.2889 85.396 31.5923 84.211 30.9367C83.8842 30.7318 83.5164 30.5679 83.1896 30.404C82.4949 30.0762 81.8412 29.7484 81.1466 29.4206C81.024 29.3796 80.8606 29.2977 80.738 29.2157C80.2477 27.3718 79.4305 25.5689 78.3682 23.8888C78.3273 23.8069 78.2864 23.7249 78.2047 23.684C77.0607 21.922 75.6714 20.3649 74.1188 19.0946C74.2005 18.6849 74.2414 18.2342 74.2414 17.7834C74.2414 17.5376 74.2005 17.1688 74.1596 16.841C74.0371 16.1034 73.7102 15.4068 73.2607 14.8331C73.1382 14.6692 72.9747 14.5053 72.8113 14.3824C71.0952 12.8663 69.2974 11.5141 67.3361 10.3258C67.2953 10.3258 67.2136 10.3258 67.1727 10.3258C67.1727 10.2848 67.1727 10.2848 67.2136 10.2438C67.2953 9.91601 67.377 9.62918 67.377 9.30137C67.377 9.26039 67.377 9.17844 67.377 9.13746C67.377 8.89161 67.3361 8.68673 67.2953 8.44087C67.1318 7.66233 66.7233 6.92476 66.1512 6.35109C65.0072 5.24474 62.2696 3.15496 56.7127 1.67982C52.9945 0.696397 48.0505 -0.000196442 41.5131 0.0407796C27.8252 -0.000196442 15.7717 6.55597 8.21272 16.718C12.6664 13.6858 17.7329 11.4731 23.1672 10.3667C23.2898 10.3258 23.4532 10.3258 23.5758 10.2848C24.3113 10.1209 25.0876 9.99796 25.8231 9.91601C24.107 10.5716 22.4726 11.3092 20.8791 12.1697C20.7565 12.2107 20.6748 12.2926 20.5522 12.3746C12.7072 16.6771 6.41491 23.4791 2.73757 31.7153C1.75695 33.887 0.939764 36.1817 0.367734 38.5173C0.245156 38.968 0.163437 39.3778 0.0408593 39.8285C0 40.4022 0 40.9759 0 41.5905C0 42.1232 0 42.6559 0.0408593 43.1886C0.776327 41.7954 1.55265 40.4841 2.4107 39.2139C3.26874 37.9436 4.20851 36.7144 5.18913 35.567C4.8214 36.9602 4.57624 38.3944 4.37195 39.8285C4.08593 41.7134 3.96335 43.6803 3.96335 45.6471C3.96335 54.8668 6.94608 63.3488 11.9718 70.2328C11.8492 69.0445 11.8083 67.8152 11.8083 66.5859C11.8083 66.0532 11.8083 65.4796 11.8492 64.9469C13.647 68.0201 15.8126 70.8064 18.305 73.306C18.877 73.8796 19.449 74.4123 20.0211 74.945C20.3479 75.2318 20.7157 75.5597 21.0425 75.8465C21.4103 76.1333 21.778 76.4611 22.1457 76.748C22.9221 77.3626 23.6984 77.9363 24.5156 78.469C24.6382 78.5509 24.7199 78.6329 24.8425 78.6738C25.3736 79.0426 25.9048 79.3704 26.4768 79.6982C26.722 79.9851 26.8854 80.2719 26.9263 80.5178C27.0489 80.9275 26.9671 81.2553 26.7628 81.5831C26.5994 81.87 26.3134 82.1158 25.9865 82.3207C25.9457 82.3617 25.8639 82.4027 25.8231 82.4436C25.0059 82.9354 23.9844 83.2632 23.2898 83.468C23.1672 83.509 23.0447 83.55 22.9629 83.55C22.7178 83.591 22.5952 83.632 22.5952 83.632C22.7586 83.632 22.8812 83.6319 23.0447 83.6729C23.2081 83.6729 23.3715 83.6729 23.4941 83.6729C24.5564 83.7139 25.4962 83.7139 26.3543 83.6729C27.0897 83.6319 27.7843 83.55 28.3972 83.468C28.4381 83.468 28.4789 83.468 28.5198 83.468C28.8875 83.4271 29.2553 83.3451 29.5413 83.2632C30.5219 83.0173 31.2982 82.7305 31.9111 82.3617C32.0746 82.2797 32.1971 82.1978 32.3197 82.0749C33.5863 81.1324 33.9132 79.9441 33.8724 78.9197C33.8724 78.7558 33.8315 78.5509 33.8315 78.387C33.6272 77.2807 33.0143 76.2972 32.1563 75.6006C31.7885 75.3138 31.4617 75.027 31.1348 74.7401C30.8488 74.5353 30.6036 74.2894 30.3585 74.0845C30.2359 73.9616 30.0725 73.8387 29.9499 73.7157C29.7864 73.5928 29.623 73.4289 29.4596 73.306C29.4187 73.265 29.3778 73.224 29.337 73.224C28.5198 72.5274 27.7435 71.8308 26.9671 71.1342C26.8446 71.0113 26.722 70.9294 26.5994 70.8064C26.5585 70.7655 26.5177 70.7655 26.5177 70.7245C25.9048 70.1508 25.3328 69.6181 24.7607 69.0854C24.2296 68.6757 23.6575 68.2249 23.1672 67.7742C22.8812 67.5284 22.6361 67.2825 22.35 67.0366C22.2683 66.9547 22.1457 66.8727 22.064 66.7498C20.9608 65.6844 19.9393 64.4961 18.9996 63.2668C16.7932 60.3166 15.1179 56.9565 14.0965 53.3506C13.361 50.7282 12.9524 47.9828 12.9524 45.1554C12.9524 44.2539 12.9933 43.3525 13.075 42.492C13.2793 40.0744 13.7696 37.7388 14.5051 35.526C16.0168 31.0187 18.5501 26.9621 21.8597 23.684C23.6575 21.881 25.7005 20.3239 27.9478 19.0127C26.4768 20.201 25.1693 21.5122 23.9436 22.9464C20.7157 26.7572 18.4275 31.3875 17.4061 36.4685C16.9975 38.3944 16.7932 40.4022 16.7932 42.451C16.7932 42.8608 16.7932 43.2705 16.834 43.6803C16.8749 44.6227 16.9566 45.5652 17.0792 46.4667C17.8147 52.0804 20.1028 57.2024 23.4532 61.3819C23.4941 61.4229 23.535 61.5049 23.5758 61.5458C24.0253 62.0785 24.4747 62.6112 24.965 63.1439C25.9457 64.2093 27.0489 65.1927 28.1929 66.0942C28.3155 66.2171 28.4789 66.2991 28.6015 66.422C28.8467 66.6269 29.0918 66.7908 29.337 66.9547C30.3176 67.6513 31.3391 68.3069 32.4014 68.8806C33.2595 69.3313 34.1175 69.782 34.9756 70.1508C35.0164 70.1508 35.0164 70.1508 35.0573 70.1918C35.139 70.2328 35.1799 70.2328 35.2616 70.2738C35.711 70.4786 36.1605 70.7245 36.5691 70.9703C38.1217 71.9538 39.3884 73.3879 40.2056 75.1499C40.5324 75.9284 40.7776 76.748 40.941 77.6085C41.227 79.5343 40.941 81.4602 40.2056 83.0993C40.2056 83.0993 40.2056 83.0993 40.1647 83.0993C39.9195 83.632 39.6335 84.1646 39.3067 84.6154C38.8572 85.271 38.2852 85.8856 37.6723 86.4183C36.896 87.0739 36.0379 87.6066 35.0981 87.9754C35.0164 88.0164 34.9347 88.0574 34.853 88.0574C34.281 88.2622 33.6272 88.4261 32.9735 88.5491C32.6057 88.59 32.2789 88.631 31.952 88.672C33.4638 88.9588 34.9756 89.0408 36.4465 88.8769C36.6917 88.8359 36.9368 88.8359 37.182 88.7949C37.182 88.7949 37.182 88.7949 37.2228 88.7949C38.9798 88.5081 40.655 87.9344 42.1668 87.033C43.0249 86.5412 43.8012 86.0086 44.5366 85.3529C44.7409 85.1481 44.9452 84.9842 45.1495 84.7793C45.7624 84.1646 46.3345 83.509 46.8656 82.7714C47.3968 82.0339 47.8462 81.2144 48.2548 80.3539C49.1129 78.469 49.5623 76.4611 49.6032 74.4943C49.6032 73.7977 49.6032 73.1011 49.5215 72.4455C49.3172 70.6835 48.786 68.9625 48.0097 67.4054C47.6828 66.7498 47.2742 66.0942 46.8656 65.4796C46.457 64.9059 45.9259 64.4142 45.3538 64.0454C43.8012 62.98 40.369 60.6444 37.754 58.7185C35.2616 56.9156 33.1778 54.5799 31.7068 51.8345C31.5434 51.5477 31.3799 51.2199 31.2165 50.8921C30.7262 49.8677 30.3176 48.8023 29.9499 47.7369C29.7456 47.0403 29.5413 46.3028 29.4187 45.5652C29.1735 44.2539 29.051 42.9017 29.051 41.5495C29.051 41.0988 29.051 40.6481 29.0918 40.1973C29.2961 36.8783 30.2767 33.7641 31.8294 31.0187C33.7498 27.6586 36.5282 24.9132 39.8787 23.0284C38.2035 24.7493 36.8142 26.7162 35.7519 28.8879C34.4035 31.7153 33.6272 34.9114 33.6272 38.2714C33.6272 38.8041 33.6272 39.2958 33.6681 39.8285C33.7089 40.4841 33.7906 41.1398 33.9132 41.7954C34.2401 43.7622 34.8121 45.6471 35.6293 47.3681C35.7519 47.655 35.9153 47.9418 36.0379 48.2286C36.3239 48.8023 36.6508 49.376 37.0185 49.9086C39.5518 53.8833 43.3517 56.9975 47.8462 58.6366C48.0505 58.7185 48.214 58.7595 48.4183 58.8414C48.8269 59.0053 49.1946 59.1692 49.6032 59.3331C51.1967 60.0707 52.5859 61.0132 53.8117 62.1605C53.8934 62.2015 53.9343 62.2834 54.016 62.3654C54.7923 63.1029 55.4869 63.9634 56.0998 64.8239C57.203 66.463 58.0202 68.2659 58.5105 70.1918C58.5514 70.3967 58.5922 70.6016 58.6331 70.8064C59.2051 73.7157 59.0008 76.748 57.8976 79.6982C57.7751 80.067 57.6116 80.4358 57.4482 80.7636C56.8353 82.1158 56.059 83.3451 55.1192 84.4105C54.9966 84.5334 54.9149 84.6563 54.7923 84.7793C54.2612 85.3529 53.73 85.8856 53.158 86.3773C52.9128 86.5822 52.6268 86.7871 52.3816 86.992C52.7494 86.7871 53.158 86.5413 53.5257 86.2954C54.4246 85.7217 55.2826 85.1481 56.1407 84.5334C56.5084 84.2876 56.8353 84.0007 57.203 83.7139C58.388 82.7715 60.1858 81.0505 61.3298 79.9441C62.1062 79.1656 62.7599 78.3051 63.2094 77.3216C63.2911 77.1577 63.3728 76.9528 63.4545 76.7889C63.4954 76.707 63.4954 76.666 63.5362 76.5841C63.9857 75.5187 64.3534 74.4533 64.5986 73.347C64.8437 72.2816 65.048 71.2162 65.1297 70.1508C65.1706 69.905 65.1706 69.6591 65.1706 69.4542C65.1706 69.4133 65.1706 69.3723 65.1706 69.3313C65.1706 69.0854 65.1706 68.8806 65.2115 68.6347C65.2115 67.8562 65.2115 67.1186 65.1297 66.34C65.0889 66.0942 65.0889 65.8074 65.048 65.5615C65.0072 65.2337 64.9663 64.9059 64.8846 64.5781C64.762 63.7995 64.5577 62.98 64.3534 62.2015C64.0674 61.1771 63.6588 60.1527 63.2094 59.1692C63.0868 58.9644 63.0051 58.7595 62.8825 58.5136C62.8825 58.4726 62.8416 58.4317 62.8416 58.3907C62.719 58.1858 62.6373 57.9809 62.5147 57.7761C61.861 56.5877 61.1255 55.4814 60.2266 54.457C59.0826 53.0638 57.7342 51.7935 56.1815 50.6872C55.7321 50.3594 55.2418 50.0316 54.7515 49.7447C54.588 49.6628 54.4655 49.5808 54.302 49.4989C54.302 49.4989 54.302 49.4989 54.2612 49.4989C53.2805 48.9252 52.3816 48.1877 51.5644 47.4091C50.0527 45.934 48.8677 44.172 48.1323 42.1642C47.5194 40.5661 47.1925 38.8041 47.1925 36.9602C47.1925 33.8051 48.1731 30.8958 49.8892 28.5191C50.5838 27.5357 51.401 26.6342 52.2999 25.8557C51.7687 26.5523 51.3193 27.3308 50.9516 28.1094C50.0527 30.0353 49.5215 32.166 49.5215 34.4197C49.5215 37.288 50.3387 39.9515 51.7687 42.2051C57.0805 42.7378 61.8201 45.2374 65.2523 48.9662C65.7426 49.4989 66.2329 50.0726 66.6824 50.6872C67.0501 51.1789 67.377 51.6706 67.7039 52.2033C67.9082 52.5311 68.235 52.777 68.6028 52.8999L75.2628 55.0716C75.5897 55.1946 75.9166 55.1946 76.2435 55.0716L91.3206 50.3594C91.6883 50.2365 92.0152 49.9906 92.2195 49.6218L94.099 46.4257C94.5076 45.7291 94.3441 44.8276 93.7313 44.3359C92.7915 43.5574 91.9743 42.6969 91.2388 41.7134C90.8711 41.2217 90.5034 40.6481 90.2174 40.1154C90.5442 40.3202 90.912 40.4841 91.2388 40.6481C92.9141 41.4676 94.7119 41.9183 96.6731 42.0412C96.8774 42.2461 97.1226 41.8364 96.9591 41.6315ZM52.3816 20.8566C52.0548 21.5532 51.3193 22.004 50.543 22.004C49.4398 22.004 48.5409 21.1025 48.5409 19.9961C48.5409 19.8732 48.5409 19.7503 48.5817 19.6273C48.9086 17.9473 49.9301 15.9395 52.9537 15.5297C54.1386 15.3658 55.3235 15.4888 56.4676 15.8575C57.9385 16.3493 60.4718 17.2507 62.433 18.6029C62.433 18.6029 54.2612 16.6771 52.3816 20.8566ZM72.6887 29.1338C72.5253 29.6255 72.4436 30.1172 72.4436 30.6089V32.207H70.85L65.1297 28.683L73.2199 28.2733C72.9747 28.4372 72.8113 28.806 72.6887 29.1338Z" fill="#2A78FB"/>
</g>
<defs>
<clipPath id="clip0_277_14">
<rect width="97" height="89" fill="white"/>
</clipPath>
</defs>
</svg>
