<svg aria-hidden="true" style="position: absolute; width: 0; height: 0; overflow: hidden;" version="1.1" xmlns="http://www.w3.org/2000/svg" xmlns:xlink="http://www.w3.org/1999/xlink">
    <defs>
        <symbol id="icon-arrow-right" viewBox="0 0 21 32">
            <path d="M2.003 32l15.803-16-15.803-16-1.975 2 13.828 14-13.828 14 1.975 2z"></path>
        </symbol>
        <symbol id="icon-file" viewBox="0 0 26 32">
            <path d="M17.067 13.474c-1.358 0-2.66-0.532-3.62-1.48s-1.5-2.233-1.5-3.573v-6.737h-6.827c-0.905 0-1.773 0.355-2.414 0.987s-1 1.488-1 2.382v21.895c0 0.893 0.36 1.75 1 2.382s1.508 0.986 2.414 0.986h15.36c0.905 0 1.773-0.355 2.414-0.986s1-1.489 1-2.382v-13.474h-6.827zM13.653 8.421c0 0.893 0.36 1.75 1 2.382s1.508 0.987 2.414 0.987h6.12l-9.533-9.408v6.040zM5.12 0h8.533l11.947 11.789v15.158c0 1.34-0.54 2.625-1.5 3.573s-2.263 1.48-3.62 1.48h-15.36c-1.358 0-2.66-0.532-3.62-1.48s-1.5-2.233-1.5-3.573v-21.895c0-1.34 0.539-2.625 1.5-3.573s2.262-1.48 3.62-1.48v0z"></path>
        </symbol>
        <symbol id="icon-telegram" viewBox="0 0 36 32">
            <path d="M33.117 0.003c-0.442 0.032-0.875 0.135-1.284 0.306h-0.005c-0.392 0.155-2.256 0.936-5.091 2.12l-10.157 4.261c-7.288 3.056-14.452 6.066-14.452 6.066l0.085-0.033c0 0-0.494 0.162-1.010 0.514-0.319 0.202-0.593 0.466-0.806 0.777-0.253 0.37-0.457 0.936-0.381 1.521 0.124 0.989 0.768 1.583 1.23 1.91 0.468 0.332 0.914 0.487 0.914 0.487h0.011l6.718 2.254c0.301 0.964 2.047 6.681 2.467 7.998 0.248 0.787 0.488 1.279 0.79 1.654 0.146 0.192 0.316 0.352 0.521 0.481 0.107 0.062 0.22 0.11 0.338 0.145l-0.069-0.016c0.021 0.005 0.037 0.022 0.052 0.027 0.055 0.015 0.092 0.021 0.162 0.032 1.064 0.321 1.918-0.337 1.918-0.337l0.048-0.038 3.967-3.598 6.648 5.081 0.152 0.064c1.385 0.606 2.789 0.269 3.53-0.326 0.747-0.599 1.038-1.365 1.038-1.365l0.048-0.123 5.138-26.217c0.146-0.647 0.183-1.253 0.022-1.841-0.166-0.595-0.549-1.107-1.075-1.435-0.441-0.267-0.952-0.396-1.468-0.37v0zM32.978 2.813c-0.006 0.086 0.011 0.077-0.028 0.243v0.015l-5.089 25.944c-0.022 0.037-0.059 0.118-0.161 0.199-0.107 0.085-0.193 0.139-0.64-0.038l-8.131-6.21-4.912 4.46 1.032-6.565 13.285-12.335c0.548-0.507 0.365-0.614 0.365-0.614 0.039-0.622-0.827-0.182-0.827-0.182l-16.753 10.338-0.005-0.027-8.050-2.703c0.014-0.005 0.028-0.010 0.041-0.016l0.044-0.022 0.043-0.015c0 0 7.17-3.010 14.458-6.066 3.649-1.531 7.325-3.073 10.153-4.262 2.827-1.183 4.917-2.050 5.036-2.097 0.113-0.044 0.059-0.044 0.14-0.044v-0.001z"></path>
        </symbol>
        <symbol id="icon-bell" viewBox="0 0 32 32">
            <path d="M16.941 2.526c0-0.223-0.099-0.438-0.276-0.595s-0.416-0.247-0.666-0.247c-0.25 0-0.489 0.089-0.665 0.247s-0.276 0.372-0.276 0.595v2.572c-2.071 0.207-3.984 1.090-5.373 2.48s-2.157 3.189-2.156 5.054v9.96l-2.985 2.671h22.912l-2.985-2.671v-9.96c0-1.864-0.767-3.664-2.156-5.054s-3.302-2.273-5.373-2.48v-2.572zM16 0c0.749 0 1.467 0.266 1.997 0.74s0.827 1.116 0.827 1.786v1.191c4.346 1.1 7.529 4.674 7.529 8.915v9.263l5.647 5.053h-32l5.647-5.053v-9.263c0-2.017 0.735-3.978 2.094-5.587s3.267-2.777 5.435-3.328v-1.191c0-0.67 0.297-1.313 0.827-1.786s1.248-0.74 1.997-0.74zM16 32c-1.085 0-2.136-0.335-2.977-0.949s-1.418-1.469-1.635-2.42h1.948c0.194 0.494 0.554 0.921 1.032 1.223s1.047 0.465 1.632 0.465 1.155-0.162 1.632-0.465c0.477-0.302 0.838-0.73 1.032-1.223h1.948c-0.217 0.951-0.795 1.806-1.635 2.42s-1.892 0.949-2.977 0.949z"></path>
        </symbol>
        <symbol id="icon-book" viewBox="0 0 40 32">
            <path d="M2.355 4.551c2.084-0.871 5.073-1.811 7.98-2.103 3.133-0.316 5.789 0.148 7.33 1.771v22.955c-2.202-1.248-4.993-1.42-7.568-1.161-2.779 0.283-5.582 1.086-7.742 1.91v-23.372zM20.020 4.219c1.54-1.623 4.197-2.087 7.33-1.771 2.906 0.292 5.895 1.232 7.98 2.103v23.372c-2.162-0.824-4.962-1.63-7.742-1.908-2.577-0.261-5.365-0.092-7.568 1.159v-22.955zM18.843 2.089c-2.32-1.995-5.683-2.292-8.745-1.986-3.566 0.36-7.165 1.583-9.407 2.603-0.206 0.094-0.38 0.244-0.503 0.434s-0.187 0.411-0.188 0.637v25.908c0 0.197 0.050 0.391 0.144 0.564s0.231 0.319 0.396 0.426c0.166 0.107 0.356 0.17 0.552 0.184s0.393-0.021 0.573-0.103c2.077-0.942 5.424-2.075 8.668-2.402 3.319-0.334 6.1 0.205 7.591 2.066 0.11 0.138 0.25 0.248 0.409 0.325s0.333 0.116 0.509 0.116c0.176 0 0.35-0.040 0.509-0.116s0.299-0.187 0.409-0.325c1.491-1.861 4.273-2.4 7.589-2.066 3.246 0.328 6.595 1.46 8.67 2.402 0.179 0.082 0.376 0.117 0.573 0.103s0.386-0.078 0.552-0.184c0.166-0.107 0.302-0.253 0.396-0.426s0.144-0.367 0.144-0.564v-25.908c0-0.226-0.065-0.447-0.187-0.637s-0.297-0.341-0.503-0.434c-2.242-1.020-5.841-2.242-9.407-2.603-3.062-0.309-6.425-0.009-8.745 1.986z"></path>
        </symbol>
        <symbol id="icon-chat" viewBox="0 0 32 32">
            <path d="M5.053 0h21.895c1.34 0 2.625 0.532 3.573 1.48s1.48 2.233 1.48 3.573v15.158c0 1.34-0.532 2.625-1.48 3.573s-2.233 1.48-3.573 1.48h-7.724l-6.243 6.243c-0.236 0.235-0.536 0.396-0.862 0.461s-0.665 0.032-0.973-0.096c-0.308-0.127-0.571-0.343-0.756-0.62s-0.284-0.602-0.284-0.936v-5.053h-5.053c-1.34 0-2.625-0.532-3.573-1.48s-1.48-2.233-1.48-3.573v-15.158c0-1.34 0.532-2.625 1.48-3.573s2.233-1.48 3.573-1.48v0zM26.947 1.684h-21.895c-0.893 0-1.75 0.355-2.382 0.987s-0.987 1.489-0.987 2.382v15.158c0 0.893 0.355 1.75 0.987 2.382s1.488 0.987 2.382 0.987h6.737v6.737l6.737-6.737h8.421c0.893 0 1.75-0.355 2.382-0.987s0.987-1.488 0.987-2.382v-15.158c0-0.893-0.355-1.75-0.987-2.382s-1.488-0.987-2.382-0.987v0z"></path>
        </symbol>
        <symbol id="icon-graph" viewBox="0 0 30 32">
            <path d="M1.882 5.647c1.040 0 1.882 0.843 1.882 1.882v22.588c0 1.040-0.843 1.882-1.882 1.882s-1.882-0.843-1.882-1.882v-22.588c0-1.040 0.843-1.882 1.882-1.882z"></path>
            <path d="M11.294 0c1.040 0 1.882 0.843 1.882 1.882v28.235c0 1.040-0.843 1.882-1.882 1.882s-1.882-0.843-1.882-1.882v-28.235c0-1.040 0.843-1.882 1.882-1.882z"></path>
            <path d="M18.824 13.176c1.040 0 1.882 0.843 1.882 1.882v15.059c0 1.040-0.843 1.882-1.882 1.882s-1.882-0.843-1.882-1.882v-15.059c0-1.040 0.843-1.882 1.882-1.882z"></path>
            <path d="M28.235 7.529c1.040 0 1.882 0.843 1.882 1.882v20.706c0 1.040-0.843 1.882-1.882 1.882s-1.882-0.843-1.882-1.882v-20.706c0-1.040 0.843-1.882 1.882-1.882z"></path>
        </symbol>
        <symbol id="icon-home" viewBox="0 0 32 32">
            <path d="M23.579 10.815l-7.579-8.229-11.934 12.959h2.671v14.63h5.053v-10.973h8.421v10.973h5.053v-14.63h2.671l-2.671-2.9v-6.243h-1.684v4.415zM0 17.373l16-17.373 5.895 6.401v-1.829h5.053v7.315l5.053 5.486h-5.053v14.627h-8.421v-10.973h-5.053v10.973h-8.421v-14.627h-5.053z"></path>
        </symbol>
        <symbol id="icon-layer" viewBox="0 0 33 32">
            <path d="M0.002 12.936l16.441-12.936 16.947 13.333-16.442 12.936-16.945-13.333zM30.352 13.297l-13.864-10.907-13.407 10.546 13.866 10.909 13.405-10.548zM16.949 32l-16.947-13.333 1.495-1.175 15.407 12.12 14.948-11.761 1.54 1.213-16.442 12.936z"></path>
        </symbol>
        <symbol id="icon-question-mark" viewBox="0 0 18 32">
            <path d="M0.635 6.257c0.476-1.43 0.952-2.503 1.905-3.397 0.794-0.894 1.746-1.609 3.016-2.145s2.54-0.715 3.968-0.715c1.111 0 2.222 0.179 3.175 0.536s1.905 0.894 2.698 1.609c0.794 0.715 1.429 1.609 1.746 2.682 0.476 1.073 0.635 2.324 0.635 3.575 0 1.788-0.317 3.218-0.952 4.469s-1.587 2.324-2.54 3.575l-2.063 2.324c-0.476 0.536-0.952 1.073-1.111 1.609-0.317 0.536-0.476 1.251-0.476 1.966-0.159 0.715-0.159 1.251-0.159 2.682h-2.54c0-1.43 0-1.966 0.159-3.039 0.159-0.894 0.476-1.788 0.794-2.682 0.317-0.715 0.794-1.43 1.429-2.145s1.429-1.43 2.222-2.503c0.794-0.894 1.429-1.788 1.905-2.682s0.794-2.145 0.794-3.218c0-0.894-0.159-1.788-0.476-2.503s-0.794-1.43-1.27-1.966c-0.476-0.536-1.111-0.894-1.905-1.251s-1.429-0.536-2.222-0.536c-1.111 0-2.063 0.179-2.857 0.715-0.794 0.358-1.587 1.073-2.064 1.788s-0.952 1.609-1.27 2.682c-0.317 1.073-0.635 1.609-0.635 2.86h-2.54c0-1.609 0.159-2.86 0.635-4.29zM10.476 28.425v3.575h-3.175v-3.575h3.175z"></path>
        </symbol>
        <symbol id="icon-search" viewBox="0 0 32 32">
            <path d="M12.181 0c2.33-0 4.612 0.668 6.574 1.925s3.522 3.050 4.495 5.166c0.973 2.116 1.318 4.467 0.994 6.774s-1.303 4.472-2.82 6.239l10.576 10.571-1.325 1.324-10.578-10.573c-1.492 1.275-3.27 2.171-5.183 2.611s-3.904 0.412-5.804-0.083c-1.9-0.495-3.652-1.441-5.106-2.758s-2.57-2.966-3.25-4.807-0.905-3.818-0.655-5.764c0.249-1.946 0.966-3.803 2.088-5.413s2.617-2.925 4.357-3.832c1.74-0.908 3.674-1.382 5.637-1.382v0zM12.181 1.873c-2.733 0-5.355 1.085-7.288 3.017s-3.019 4.552-3.019 7.284c0 2.732 1.086 5.352 3.019 7.284s4.554 3.017 7.288 3.017 5.355-1.085 7.288-3.017c1.933-1.932 3.019-4.552 3.019-7.284s-1.086-5.352-3.019-7.284c-1.933-1.932-4.554-3.017-7.288-3.017z"></path>
        </symbol>
        <symbol id="icon-virus" viewBox="0 0 26 32">
            <path d="M16.696 12.985l-4.638 6.493-2.319-3.246 0.331-0.464 1.988 2.783 4.306-6.029 0.331 0.464 0-0.001z"></path>
            <path d="M25.727 5.721c-2.139-0.586-4.229-1.348-6.25-2.279-1.988-0.886-3.907-1.926-5.74-3.113l-0.519-0.33-0.51 0.339c-1.833 1.186-3.752 2.227-5.74 3.113-2.024 0.927-4.117 1.686-6.259 2.269l-0.708 0.184v8.087c0 12.984 12.774 17.842 12.896 17.891l0.321 0.116 0.321-0.116c0.132 0 12.896-4.897 12.896-17.891v-8.087l-0.708-0.184zM24.547 13.993c0 10.667-9.441 15.137-11.329 15.932-1.888-0.795-11.329-5.275-11.329-15.932v-6.584c1.992-0.588 3.941-1.317 5.835-2.182 1.894-0.841 3.729-1.813 5.495-2.909 1.765 1.096 3.601 2.068 5.495 2.909 1.893 0.865 3.843 1.594 5.835 2.182v6.584z"></path>
        </symbol>
        <symbol id="icon-zigzag" viewBox="0 0 35 32">
            <path d="M30.417 21.818c-1.19 0.002-2.34 0.443-3.24 1.244s-1.489 1.908-1.66 3.119h-17.735c-1.688 0-3.308-0.69-4.502-1.917s-1.865-2.892-1.865-4.628c0-1.736 0.671-3.401 1.865-4.628s2.813-1.917 4.502-1.917h16.977c1.688 0 3.308-0.69 4.502-1.917s1.865-2.892 1.865-4.628c0-1.736-0.671-3.401-1.865-4.628s-2.813-1.917-4.502-1.917h-16.977c-0.188 0-0.367 0.077-0.5 0.213s-0.207 0.321-0.207 0.514c0 0.193 0.075 0.378 0.207 0.514s0.313 0.213 0.5 0.213h16.977c1.313 0 2.573 0.536 3.501 1.491s1.45 2.25 1.45 3.6-0.522 2.645-1.45 3.6c-0.928 0.955-2.188 1.491-3.501 1.491h-16.977c-2.064 0-4.043 0.843-5.502 2.343s-2.279 3.535-2.279 5.657c0 2.122 0.82 4.157 2.279 5.657s3.438 2.343 5.502 2.343h17.735c0.136 0.966 0.538 1.871 1.16 2.608s1.437 1.275 2.347 1.549c0.911 0.274 1.879 0.274 2.79-0.001s1.725-0.814 2.346-1.552c0.621-0.738 1.023-1.643 1.158-2.609s-0.003-1.951-0.398-2.839c-0.394-0.888-1.029-1.64-1.827-2.167s-1.727-0.808-2.677-0.808zM30.417 30.546c-0.699 0-1.383-0.213-1.965-0.613s-1.035-0.968-1.303-1.632-0.338-1.396-0.201-2.101c0.136-0.705 0.473-1.353 0.968-1.862s1.125-0.855 1.811-0.995c0.686-0.14 1.397-0.068 2.044 0.207s1.199 0.741 1.587 1.339c0.389 0.598 0.596 1.301 0.596 2.020-0.001 0.964-0.374 1.888-1.037 2.57s-1.562 1.065-2.5 1.066z"></path>
        </symbol>
        <symbol id="icon-lock" viewBox="0 0 35 32">
            <path d="M1 9V8.25C0.585786 8.25 0.25 8.58579 0.25 9H1ZM15 9H15.75C15.75 8.58579 15.4142 8.25 15 8.25V9ZM15 19V19.75C15.4142 19.75 15.75 19.4142 15.75 19H15ZM1 19H0.25C0.25 19.4142 0.585786 19.75 1 19.75L1 19ZM1 9.75H15V8.25H1V9.75ZM14.25 9V19H15.75V9H14.25ZM15 18.25H1V19.75H15V18.25ZM1.75 19V9H0.25V19H1.75ZM4.75 5C4.75 3.20507 6.20507 1.75 8 1.75V0.25C5.37665 0.25 3.25 2.37665 3.25 5H4.75ZM8 1.75C9.79493 1.75 11.25 3.20507 11.25 5H12.75C12.75 2.37665 10.6234 0.25 8 0.25V1.75ZM3.25 5V9H4.75V5H3.25ZM11.25 5V9H12.75V5H11.25Z" fill="#bbff64" />
        </symbol>
        <symbol id="icon-whitepaper" viewBox="0 0 59 58">
            <g filter="url(#filter0_i_156_55)">
                <ellipse cx="29.5" cy="29" rx="29.5" ry="29" fill="url(#paint0_linear_156_55)" />
            </g>
            <path d="M58 29C58 44.4479 45.2563 57 29.5 57C13.7437 57 1 44.4479 1 29C1 13.5521 13.7437 1 29.5 1C45.2563 1 58 13.5521 58 29Z" stroke="#E0E3E3" stroke-width="2" />
            <path fill-rule="evenodd" clip-rule="evenodd" d="M31.5 22C30.9477 22 30.5 22.4477 30.5 23V28.5H25C24.4477 28.5 24 28.9477 24 29.5C24 30.0523 24.4477 30.5 25 30.5H30.5V36C30.5 36.5523 30.9477 37 31.5 37C32.0523 37 32.5 36.5523 32.5 36V30.5H38C38.5523 30.5 39 30.0523 39 29.5C39 28.9477 38.5523 28.5 38 28.5H32.5V23C32.5 22.4477 32.0523 22 31.5 22Z" fill="url(#paint1_linear_156_55)" />
            <path fill-rule="evenodd" clip-rule="evenodd" d="M30 21C29.4477 21 29 21.4477 29 22V27.5H23.5C22.9477 27.5 22.5 27.9477 22.5 28.5C22.5 29.0523 22.9477 29.5 23.5 29.5H29V35C29 35.5523 29.4477 36 30 36C30.5523 36 31 35.5523 31 35V29.5H36.5C37.0523 29.5 37.5 29.0523 37.5 28.5C37.5 27.9477 37.0523 27.5 36.5 27.5H31V22C31 21.4477 30.5523 21 30 21Z" fill="#E0E3E3" />
        </symbol>
        <symbol id="icon-token-presale" viewBox="0 0 59 58">
            <g filter="url(#filter0_i_340_2)">
                <ellipse cx="29.5" cy="29" rx="29.5" ry="29" fill="url(#paint0_linear_340_2)" />
            </g>
            <path d="M58 29C58 44.4479 45.2563 57 29.5 57C13.7437 57 1 44.4479 1 29C1 13.5521 13.7437 1 29.5 1C45.2563 1 58 13.5521 58 29Z" stroke="#E9BA42" stroke-width="2" />
            <path fill-rule="evenodd" clip-rule="evenodd" d="M39.2971 30.2646L39.7167 30.9519L39.7437 30.9931C39.8742 31.2046 39.9573 31.4425 39.9875 31.6903C40.0174 31.9381 39.9936 32.1894 39.9175 32.4266C39.8411 32.664 39.7147 32.8812 39.5466 33.0634C39.3788 33.2456 39.1733 33.3881 38.9452 33.4808L38.1874 33.7969C37.7772 33.967 37.4215 34.2502 37.161 34.6144C36.9005 34.9786 36.7451 35.4094 36.7124 35.8585L36.6449 36.6693C36.6223 36.9173 36.5475 37.1571 36.4261 37.3734C36.3044 37.5897 36.1388 37.7767 35.9402 37.9226C35.7415 38.0685 35.5145 38.1692 35.2744 38.2187C35.034 38.2679 34.7862 38.2645 34.5474 38.2086L33.7491 38.0162C33.3152 37.915 32.8626 37.9341 32.4388 38.0719C32.015 38.2097 31.6355 38.4612 31.3403 38.7996L30.8127 39.4043C30.6501 39.5914 30.4503 39.7414 30.2262 39.844C30.0022 39.9469 29.7593 40 29.5135 40C29.2677 40 29.0249 39.9469 28.8011 39.844C28.577 39.7414 28.377 39.5914 28.2146 39.4043L27.6867 38.7996C27.3915 38.4612 27.0121 38.2097 26.5884 38.0719C26.1643 37.9341 25.7117 37.915 25.2781 38.0162L24.4798 38.2086C24.2408 38.2645 23.993 38.2679 23.7528 38.2187C23.5127 38.1692 23.2855 38.0685 23.0868 37.9226C22.8881 37.7767 22.7225 37.5897 22.6011 37.3734C22.4795 37.1571 22.4049 36.9173 22.3823 36.6693H22.3551L22.2876 35.8585C22.2699 35.395 22.1215 34.9466 21.8599 34.5665C21.5984 34.1864 21.2348 33.8905 20.8126 33.7143L20.0548 33.3981C19.8267 33.3057 19.6212 33.163 19.4534 32.981C19.2853 32.7988 19.1589 32.5814 19.0827 32.3442C19.0064 32.1069 18.9826 31.8555 19.0125 31.6077C19.0426 31.3601 19.1258 31.1222 19.2563 30.9107L19.6758 30.2235C19.908 29.8388 20.0308 29.3966 20.0308 28.9454C20.0308 28.4942 19.908 28.052 19.6758 27.6673L19.2563 26.98C19.1258 26.7685 19.0426 26.5306 19.0125 26.2828C18.9826 26.0353 19.0064 25.7838 19.0827 25.5466C19.1589 25.3094 19.2853 25.0919 19.4534 24.9097C19.6212 24.7275 19.8267 24.5851 20.0548 24.4923L20.8126 24.1762C21.2228 24.0062 21.5785 23.7229 21.839 23.3587C22.0995 22.9945 22.2549 22.5638 22.2876 22.1147L22.3822 21.345C22.4047 21.0958 22.4794 20.8542 22.6018 20.637C22.7241 20.4196 22.8913 20.2316 23.0913 20.0855C23.2916 19.9397 23.5204 19.8391 23.7623 19.7908C24.0043 19.7425 24.2535 19.7475 24.4931 19.8058L25.2917 19.9983C25.7253 20.0996 26.178 20.0803 26.6018 19.9424C27.0256 19.8046 27.4051 19.5531 27.7003 19.2149L28.2281 18.6099C28.3881 18.4187 28.5872 18.2653 28.8115 18.1599C29.0358 18.0545 29.28 18 29.5271 18C29.7743 18 30.0185 18.0545 30.2428 18.1599C30.4671 18.2653 30.6662 18.4187 30.8261 18.6099L31.354 19.2149C31.6491 19.5531 32.0286 19.8046 32.4524 19.9424C32.8763 20.0802 33.3289 20.0996 33.7625 19.9983L34.5611 19.8058C34.794 19.7565 35.0344 19.7567 35.2672 19.8067C35.5001 19.8568 35.7201 19.9553 35.9133 20.0961C36.1068 20.2369 36.2692 20.4169 36.3907 20.6249C36.5119 20.8328 36.5893 21.0641 36.6179 21.3038L36.6856 22.1147C36.7108 22.5709 36.8628 23.0106 37.1237 23.3826C37.3847 23.7549 37.7442 24.0444 38.1606 24.2176L38.9184 24.5338C39.1465 24.6263 39.3517 24.7689 39.5198 24.9509C39.6877 25.1331 39.8143 25.3505 39.8904 25.5877C39.9666 25.825 39.9906 26.0764 39.9607 26.324C39.9305 26.5718 39.8474 26.8097 39.7167 27.0212L39.2971 27.7084C39.0652 28.0931 38.9424 28.5356 38.9424 28.9865C38.9424 29.4377 39.0652 29.88 39.2971 30.2646ZM36.0461 33.7631C36.4573 33.1952 37.0161 32.7546 37.6599 32.4912L38.4583 32.2301C38.5051 32.2135 38.5475 32.1861 38.5822 32.1502C38.6171 32.1143 38.6431 32.0708 38.659 32.023C38.6746 31.9753 38.6791 31.9245 38.6726 31.8746C38.666 31.8249 38.6483 31.7772 38.6207 31.7354L38.2011 30.9243C37.8355 30.3261 37.6418 29.6358 37.6418 28.9315C37.6418 28.2273 37.8355 27.5372 38.2011 26.9388L38.6207 26.2377C38.6377 26.1956 38.6458 26.1503 38.6449 26.1045C38.6438 26.059 38.6334 26.0141 38.6143 25.9727C38.5951 25.9313 38.5679 25.8944 38.5339 25.8643C38.5002 25.8344 38.4605 25.8118 38.4177 25.798L37.6733 25.4819C37.0295 25.2184 36.4706 24.7781 36.0597 24.21C35.6482 23.6419 35.4013 22.9687 35.3458 22.266L35.2783 21.4549C35.2724 21.4034 35.2554 21.3539 35.2289 21.3095C35.2022 21.2653 35.1664 21.2276 35.124 21.1988C35.0814 21.1701 35.0332 21.151 34.9829 21.1429C34.9324 21.1351 34.8807 21.1383 34.8316 21.1526L34.0469 21.3314C33.3738 21.4947 32.6695 21.4669 32.0107 21.2513C31.352 21.0355 30.7643 20.64 30.3119 20.108L29.7707 19.5033C29.7365 19.4649 29.6946 19.4343 29.6482 19.4134C29.6015 19.3924 29.5512 19.3816 29.5 19.3816C29.449 19.3816 29.3987 19.3924 29.3521 19.4134C29.3056 19.4343 29.2637 19.4649 29.2295 19.5033L28.7017 20.108C28.2493 20.64 27.6618 21.0355 27.0031 21.2513C26.3446 21.4669 25.64 21.4947 24.967 21.3314L24.182 21.1526C24.1331 21.1383 24.0814 21.1351 24.0309 21.1429C23.9806 21.151 23.9324 21.1701 23.8898 21.1988C23.8474 21.2276 23.8116 21.2653 23.7849 21.3095C23.7582 21.3539 23.7414 21.4034 23.7355 21.4549L23.6408 22.266C23.5758 22.959 23.3244 23.6205 22.9139 24.178C22.5034 24.7357 21.9495 25.1678 21.3133 25.4269L20.5692 25.743C20.5223 25.7596 20.4799 25.787 20.445 25.8229C20.4104 25.8588 20.3841 25.9023 20.3685 25.9501C20.3528 25.9977 20.3481 26.0486 20.3546 26.0985C20.3614 26.1482 20.3791 26.1961 20.4067 26.2377L20.8263 27.0488C21.1917 27.647 21.3854 28.3373 21.3854 29.0415C21.3854 29.7458 21.1917 30.4359 20.8263 31.0343L20.4067 31.7354C20.3893 31.7765 20.3805 31.8212 20.3807 31.866C20.3809 31.9111 20.3902 31.9556 20.4079 31.9967C20.4258 32.0379 20.4516 32.075 20.484 32.1056C20.5162 32.1364 20.5544 32.1599 20.5961 32.1751L21.3403 32.4912C21.9843 32.7547 22.5432 33.1953 22.9542 33.7631C23.3654 34.3312 23.6125 35.0044 23.668 35.7073L23.7355 36.5182C23.7419 36.5681 23.7584 36.6162 23.7842 36.6592C23.8098 36.7025 23.8445 36.7395 23.8853 36.768C23.9263 36.7966 23.9725 36.8159 24.0214 36.8251C24.0704 36.8341 24.1204 36.8327 24.1687 36.8205L24.9534 36.6417C25.6264 36.4784 26.331 36.5062 26.9895 36.722C27.6483 36.9376 28.2359 37.3329 28.6881 37.8651L29.2159 38.4698C29.2501 38.5082 29.292 38.5388 29.3385 38.5597C29.3852 38.5807 29.4357 38.5915 29.4866 38.5915C29.5376 38.5915 29.5879 38.5807 29.6346 38.5597C29.6812 38.5388 29.7229 38.5082 29.7571 38.4698L30.2986 37.8651C30.751 37.3329 31.3384 36.9376 31.9971 36.722C32.6559 36.5062 33.3602 36.4784 34.0333 36.6417L34.8182 36.8205C34.8674 36.8348 34.9188 36.838 34.9693 36.8302C35.0198 36.8221 35.0679 36.8033 35.1104 36.7743C35.1528 36.7455 35.1886 36.7078 35.2153 36.6636C35.2421 36.6194 35.2588 36.5697 35.2647 36.5182L35.3325 35.7073C35.3877 35.0044 35.6349 34.3312 36.0461 33.7631ZM27.75 29.5C27.75 28.5335 28.5335 27.75 29.5 27.75C30.4665 27.75 31.25 28.5335 31.25 29.5C31.25 30.4665 30.4665 31.25 29.5 31.25C28.5335 31.25 27.75 30.4665 27.75 29.5ZM29.5 26.25C27.7051 26.25 26.25 27.7051 26.25 29.5C26.25 31.2949 27.7051 32.75 29.5 32.75C31.2949 32.75 32.75 31.2949 32.75 29.5C32.75 27.7051 31.2949 26.25 29.5 26.25Z" fill="#E9BA42" />
        </symbol>
        <symbol id="icon-token-minting" viewBox="0 0 161 67">
            <g filter="url(#filter0_i_156_78)">
                <circle cx="107.5" cy="43.5" r="31.5" fill="#8A78FF" />
            </g>
            <g filter="url(#filter1_di_156_78)">
                <rect x="25" y="21" width="161" height="46" rx="23" fill="#6D5DD3" />
            </g>
            <path d="M100.218 56.3551C65.5 30.0001 45.5 42.5002 34 62.0003C37 64.5003 41.5248 66.6454 49.0495 67.0002H161.921C177.171 67.0002 183.328 56.3227 185 51.0001L186 46.5001V44.0001C168.442 45.4195 128.901 78.1291 100.218 56.3551Z" fill="#5E50B3" />
            <g filter="url(#filter2_d_156_78)">
                <path d="M87.0287 15.4096C81.8219 12.5248 74.896 11 67 11C59.104 11 52.1781 12.5248 46.9713 15.4096C41.9054 18.2163 39 22.1602 39 26.2308V39.7692C39 43.8398 41.9054 47.7837 46.9713 50.5904C52.1781 53.4752 59.104 55 67 55C74.896 55 81.8219 53.4752 87.0287 50.5904C92.0946 47.7837 95 43.8398 95 39.7692V26.2308C95 22.1602 92.0946 18.2163 87.0287 15.4096ZM48.3377 18.4366C53.054 15.8239 59.6818 14.3846 67 14.3846C74.3182 14.3846 80.946 15.8239 85.6623 18.4366C89.6553 20.649 91.9455 23.4898 91.9455 26.2308C91.9455 28.9717 89.6553 31.8126 85.6623 34.025C80.946 36.6376 74.3182 38.0769 67 38.0769C59.6818 38.0769 53.054 36.6376 48.3377 34.025C44.3447 31.8126 42.0545 28.9717 42.0545 26.2308C42.0545 23.4898 44.3447 20.649 48.3377 18.4366ZM65.4727 41.4418V51.5928C60.5763 51.4569 56.0367 50.668 52.2364 49.3068V39.3196C56.1235 40.5965 60.5969 41.3177 65.4727 41.4418ZM68.5273 41.4418C73.4031 41.3177 77.8765 40.5965 81.7636 39.3196V49.3065C77.9633 50.668 73.4237 51.4566 68.5273 51.5928V41.4418ZM42.0545 39.7692V33.2852C43.5073 34.8157 45.1661 36.0864 46.9713 37.0519C47.6943 37.4502 48.4318 37.8153 49.1818 38.1463V48.0068C48.898 47.865 48.6165 47.7171 48.3377 47.5634C44.3447 45.351 42.0545 42.5102 42.0545 39.7692ZM85.6623 47.5634C85.3834 47.7171 85.102 47.865 84.8182 48.0068V38.1463C85.5682 37.8153 86.3057 37.4502 87.0287 37.0519C88.8339 36.0864 90.4927 34.8157 91.9455 33.2852V39.7692C91.9455 42.5102 89.6553 45.351 85.6623 47.5634Z" fill="#E1E1FF" />
            </g>
            <g opacity="0.1" filter="url(#filter3_d_156_78)">
                <path d="M88.0287 17.4096C82.8219 14.5248 75.896 13 68 13C60.104 13 53.1781 14.5248 47.9713 17.4096C42.9054 20.2163 40 24.1602 40 28.2308V41.7692C40 45.8398 42.9054 49.7837 47.9713 52.5904C53.1781 55.4752 60.104 57 68 57C75.896 57 82.8219 55.4752 88.0287 52.5904C93.0946 49.7837 96 45.8398 96 41.7692V28.2308C96 24.1602 93.0946 20.2163 88.0287 17.4096ZM49.3377 20.4366C54.054 17.8239 60.6818 16.3846 68 16.3846C75.3182 16.3846 81.946 17.8239 86.6623 20.4366C90.6553 22.649 92.9455 25.4898 92.9455 28.2308C92.9455 30.9717 90.6553 33.8126 86.6623 36.025C81.946 38.6376 75.3182 40.0769 68 40.0769C60.6818 40.0769 54.054 38.6376 49.3377 36.025C45.3447 33.8126 43.0545 30.9717 43.0545 28.2308C43.0545 25.4898 45.3447 22.649 49.3377 20.4366ZM66.4727 43.4418V53.5928C61.5763 53.4569 57.0367 52.668 53.2364 51.3068V41.3196C57.1235 42.5965 61.5969 43.3177 66.4727 43.4418ZM69.5273 43.4418C74.4031 43.3177 78.8765 42.5965 82.7636 41.3196V51.3065C78.9633 52.668 74.4237 53.4566 69.5273 53.5928V43.4418ZM43.0545 41.7692V35.2852C44.5073 36.8157 46.1661 38.0864 47.9713 39.0519C48.6943 39.4502 49.4318 39.8153 50.1818 40.1463V50.0068C49.898 49.865 49.6165 49.7171 49.3377 49.5634C45.3447 47.351 43.0545 44.5102 43.0545 41.7692ZM86.6623 49.5634C86.3835 49.7171 86.102 49.865 85.8182 50.0068V40.1463C86.5682 39.8153 87.3057 39.4502 88.0287 39.0519C89.8339 38.0864 91.4927 36.8157 92.9455 35.2852V41.7692C92.9455 44.5102 90.6553 47.351 86.6623 49.5634Z" fill="#E1E1FF" />
            </g>
            <path d="M148 50H147V48H148V50ZM132 46H131V43H132V44H133V45H132V46ZM147 44V43H148V46H147V45H146V44H147ZM142 45V44H144V45H142ZM139 45V44H140V45H139ZM135 45V44H137V45H135ZM132 50H131V48H132V50ZM131 37V36H132V37H131ZM131 39H132V41H131V39ZM143 37V36H145V37H143ZM134 37V36H136V37H134ZM138 37V36H141V37H140V38H139V37H138ZM148 41H147V39H148V41ZM147 37V36H148V37H147ZM140 49H139V47H140V49ZM140 42H139V40H140V42ZM131 52H132V53H131V52ZM143 52H145V53H143V52ZM134 52H136V53H134V52ZM138 52H139V51H140V52H141V53H138V52ZM147 52H148V53H147V52Z" fill="white" />
            <path opacity="0.3" d="M123 50H122V48H123V50ZM107 46H106V43H107V44H108V45H107V46ZM122 44V43H123V46H122V45H121V44H122ZM117 45V44H119V45H117ZM114 45V44H115V45H114ZM110 45V44H112V45H110ZM107 50H106V48H107V50ZM106 37V36H107V37H106ZM106 39H107V41H106V39ZM118 37V36H120V37H118ZM109 37V36H111V37H109ZM113 37V36H116V37H115V38H114V37H113ZM123 41H122V39H123V41ZM122 37V36H123V37H122ZM115 49H114V47H115V49ZM115 42H114V40H115V42ZM106 52H107V53H106V52ZM118 52H120V53H118V52ZM109 52H111V53H109V52ZM113 52H114V51H115V52H116V53H113V52ZM122 52H123V53H122V52Z" fill="white" />
            <g opacity="0.3">
                <path d="M162 36H163V38.01C166.29 38.151 167 39.695 167 41H166C166 39.673 164.822 39 162.5 39C161.68 39 159 39.163 159 41.249C159 42.121 159 43.109 162.621 44.015L164.227 44.5C166.76 45.435 167 46.572 167 47.751C167 49.632 165.482 50.844 163 50.986V53H162V50.99C158.71 50.849 158 49.305 158 48H159C159 49.327 160.178 50 162.5 50C163.32 50 166 49.837 166 47.751C166 46.879 166 45.891 162.379 44.985L160.773 44.5C158.24 43.565 158 42.428 158 41.249C158 39.368 159.518 38.156 162 38.014V36Z" fill="#E1E1FF" />
            </g>
            <g filter="url(#filter4_b_156_78)">
                <ellipse cx="67" cy="23" rx="19" ry="15" fill="white" fill-opacity="0.01" />
            </g>
            <g filter="url(#filter5_bd_156_78)">
                <path d="M80.5909 11.0065C77.0577 9.03962 72.358 8 67 8C61.642 8 56.9423 9.03962 53.4091 11.0065C49.9715 12.9202 48 15.6092 48 18.3846V27.6154C48 30.3908 49.9715 33.0798 53.4091 34.9935C56.9423 36.9604 61.642 38 67 38C72.358 38 77.0577 36.9604 80.5909 34.9935C84.0285 33.0798 86 30.3908 86 27.6154V18.3846C86 15.6092 84.0285 12.9202 80.5909 11.0065ZM54.3363 13.0704C57.5366 11.289 62.0341 10.3077 67 10.3077C71.9659 10.3077 76.4634 11.289 79.6637 13.0704C82.3732 14.5788 83.9273 16.5158 83.9273 18.3846C83.9273 20.2535 82.3732 22.1904 79.6637 23.6988C76.4634 25.4802 71.9659 26.4615 67 26.4615C62.0341 26.4615 57.5366 25.4802 54.3363 23.6988C51.6268 22.1904 50.0727 20.2535 50.0727 18.3846C50.0727 16.5158 51.6268 14.5788 54.3363 13.0704ZM65.9636 28.7558V35.6769C62.6411 35.5842 59.5606 35.0463 56.9818 34.1183V27.3088C59.6195 28.1794 62.655 28.6712 65.9636 28.7558ZM68.0364 28.7558C71.345 28.6712 74.3805 28.1794 77.0182 27.3088V34.1181C74.4394 35.0463 71.3589 35.584 68.0364 35.6769V28.7558ZM50.0727 27.6154V23.1944C51.0585 24.2379 52.1841 25.1044 53.4091 25.7627C53.8997 26.0342 54.4001 26.2831 54.9091 26.5088V33.2319C54.7165 33.1352 54.5255 33.0344 54.3363 32.9296C51.6268 31.4212 50.0727 29.4842 50.0727 27.6154ZM79.6637 32.9296C79.4745 33.0344 79.2835 33.1352 79.0909 33.2319V26.5088C79.5999 26.2831 80.1003 26.0342 80.5909 25.7627C81.8159 25.1044 82.9415 24.2379 83.9273 23.1944V27.6154C83.9273 29.4842 82.3732 31.4212 79.6637 32.9296Z" fill="#BDADFF" />
            </g>
            <defs>
                <filter id="filter0_i_156_78" x="76" y="12" width="63" height="67" filterUnits="userSpaceOnUse" color-interpolation-filters="sRGB">
                    <feFlood flood-opacity="0" result="BackgroundImageFix" />
                    <feBlend mode="normal" in="SourceGraphic" in2="BackgroundImageFix" result="shape" />
                    <feColorMatrix in="SourceAlpha" type="matrix" values="0 0 0 0 0 0 0 0 0 0 0 0 0 0 0 0 0 0 127 0" result="hardAlpha" />
                    <feOffset dy="4" />
                    <feGaussianBlur stdDeviation="2" />
                    <feComposite in2="hardAlpha" operator="arithmetic" k2="-1" k3="1" />
                    <feColorMatrix type="matrix" values="0 0 0 0 0 0 0 0 0 0 0 0 0 0 0 0 0 0 0.25 0" />
                    <feBlend mode="normal" in2="shape" result="effect1_innerShadow_156_78" />
                </filter>
                <filter id="filter1_di_156_78" x="0" y="0" width="211" height="96" filterUnits="userSpaceOnUse" color-interpolation-filters="sRGB">
                    <feFlood flood-opacity="0" result="BackgroundImageFix" />
                    <feColorMatrix in="SourceAlpha" type="matrix" values="0 0 0 0 0 0 0 0 0 0 0 0 0 0 0 0 0 0 127 0" result="hardAlpha" />
                    <feOffset dy="4" />
                    <feGaussianBlur stdDeviation="12.5" />
                    <feComposite in2="hardAlpha" operator="out" />
                    <feColorMatrix type="matrix" values="0 0 0 0 0 0 0 0 0 0 0 0 0 0 0 0 0 0 0.2 0" />
                    <feBlend mode="normal" in2="BackgroundImageFix" result="effect1_dropShadow_156_78" />
                    <feBlend mode="normal" in="SourceGraphic" in2="effect1_dropShadow_156_78" result="shape" />
                    <feColorMatrix in="SourceAlpha" type="matrix" values="0 0 0 0 0 0 0 0 0 0 0 0 0 0 0 0 0 0 127 0" result="hardAlpha" />
                    <feOffset dy="4" />
                    <feGaussianBlur stdDeviation="12.5" />
                    <feComposite in2="hardAlpha" operator="arithmetic" k2="-1" k3="1" />
                    <feColorMatrix type="matrix" values="0 0 0 0 0 0 0 0 0 0 0 0 0 0 0 0 0 0 0.35 0" />
                    <feBlend mode="normal" in2="shape" result="effect2_innerShadow_156_78" />
                </filter>
                <filter id="filter2_d_156_78" x="29" y="5" width="76" height="64" filterUnits="userSpaceOnUse" color-interpolation-filters="sRGB">
                    <feFlood flood-opacity="0" result="BackgroundImageFix" />
                    <feColorMatrix in="SourceAlpha" type="matrix" values="0 0 0 0 0 0 0 0 0 0 0 0 0 0 0 0 0 0 127 0" result="hardAlpha" />
                    <feOffset dy="4" />
                    <feGaussianBlur stdDeviation="5" />
                    <feComposite in2="hardAlpha" operator="out" />
                    <feColorMatrix type="matrix" values="0 0 0 0 0 0 0 0 0 0 0 0 0 0 0 0 0 0 0.1 0" />
                    <feBlend mode="normal" in2="BackgroundImageFix" result="effect1_dropShadow_156_78" />
                    <feBlend mode="normal" in="SourceGraphic" in2="effect1_dropShadow_156_78" result="shape" />
                </filter>
                <filter id="filter3_d_156_78" x="30" y="7" width="76" height="64" filterUnits="userSpaceOnUse" color-interpolation-filters="sRGB">
                    <feFlood flood-opacity="0" result="BackgroundImageFix" />
                    <feColorMatrix in="SourceAlpha" type="matrix" values="0 0 0 0 0 0 0 0 0 0 0 0 0 0 0 0 0 0 127 0" result="hardAlpha" />
                    <feOffset dy="4" />
                    <feGaussianBlur stdDeviation="5" />
                    <feComposite in2="hardAlpha" operator="out" />
                    <feColorMatrix type="matrix" values="0 0 0 0 0 0 0 0 0 0 0 0 0 0 0 0 0 0 0.1 0" />
                    <feBlend mode="normal" in2="BackgroundImageFix" result="effect1_dropShadow_156_78" />
                    <feBlend mode="normal" in="SourceGraphic" in2="effect1_dropShadow_156_78" result="shape" />
                </filter>
                <filter id="filter4_b_156_78" x="23" y="-17" width="88" height="80" filterUnits="userSpaceOnUse" color-interpolation-filters="sRGB">
                    <feFlood flood-opacity="0" result="BackgroundImageFix" />
                    <feGaussianBlur in="BackgroundImage" stdDeviation="12.5" />
                    <feComposite in2="SourceAlpha" operator="in" result="effect1_backgroundBlur_156_78" />
                    <feBlend mode="normal" in="SourceGraphic" in2="effect1_backgroundBlur_156_78" result="shape" />
                </filter>
                <filter id="filter5_bd_156_78" x="23" y="-17" width="88" height="80" filterUnits="userSpaceOnUse" color-interpolation-filters="sRGB">
                    <feFlood flood-opacity="0" result="BackgroundImageFix" />
                    <feGaussianBlur in="BackgroundImage" stdDeviation="12.5" />
                    <feComposite in2="SourceAlpha" operator="in" result="effect1_backgroundBlur_156_78" />
                    <feColorMatrix in="SourceAlpha" type="matrix" values="0 0 0 0 0 0 0 0 0 0 0 0 0 0 0 0 0 0 127 0" result="hardAlpha" />
                    <feOffset dy="4" />
                    <feGaussianBlur stdDeviation="5" />
                    <feComposite in2="hardAlpha" operator="out" />
                    <feColorMatrix type="matrix" values="0 0 0 0 0 0 0 0 0 0 0 0 0 0 0 0 0 0 0.1 0" />
                    <feBlend mode="normal" in2="effect1_backgroundBlur_156_78" result="effect2_dropShadow_156_78" />
                    <feBlend mode="normal" in="SourceGraphic" in2="effect2_dropShadow_156_78" result="shape" />
                </filter>
            </defs>
        </symbol>
        <symbol id="icon-token-bulk-sending" viewBox="0 0 59 58">
            <g filter="url(#filter0_i_156_68)">
                <ellipse cx="29.5" cy="29" rx="29.5" ry="29" fill="url(#paint0_linear_156_68)" />
            </g>
            <path d="M58.25 29C58.25 44.59 45.3903 57.25 29.5 57.25C13.6097 57.25 0.75 44.59 0.75 29C0.75 13.41 13.6097 0.75 29.5 0.75C45.3903 0.75 58.25 13.41 58.25 29Z" stroke="#BBFF64" stroke-width="1.5" />
            <path d="M39 22L22 29L29 32M39 22L32 39L29 32M39 22L29 32" stroke="url(#paint1_linear_156_68)" stroke-width="1.5" stroke-linecap="round" stroke-linejoin="round" />
            <path d="M38 21L21 28L28 31M38 21L31 38L28 31M38 21L28 31" stroke="#BBFF64" stroke-width="1.5" stroke-linecap="round" stroke-linejoin="round" />
        </symbol>
        <symbol id="icon-token-auditing" viewBox="0 0 59 58">
            <g filter="url(#filter0_i_156_72)">
                <ellipse cx="29.5" cy="29" rx="29.5" ry="29" fill="url(#paint0_linear_156_72)" />
            </g>
            <path d="M58 29C58 44.4479 45.2563 57 29.5 57C13.7437 57 1 44.4479 1 29C1 13.5521 13.7437 1 29.5 1C45.2563 1 58 13.5521 58 29Z" stroke="#47F4FF" stroke-width="2" />
            <path d="M39.4643 22.1121C37.8457 21.6906 36.2644 21.1429 34.7357 20.4742C33.2317 19.8376 31.7799 19.0897 30.3929 18.237L30 18L29.6143 18.2439C28.2273 19.0967 26.7754 19.8446 25.2714 20.4812C23.7402 21.1478 22.1565 21.6932 20.5357 22.1121L20 22.2445V28.0573C20 37.3897 29.6643 40.8815 29.7571 40.9164L30 41L30.2429 40.9164C30.3429 40.9164 40 37.3967 40 28.0573V22.2445L39.4643 22.1121ZM38.5714 28.0573C38.5714 35.7239 31.4286 38.937 30 39.5085C28.5714 38.937 21.4286 35.717 21.4286 28.0573V23.3248C22.9353 22.9022 24.4103 22.3782 25.8429 21.7567C27.2755 21.1524 28.6644 20.4538 30 19.6658C31.3356 20.4538 32.7245 21.1524 34.1571 21.7567C35.5897 22.3782 37.0647 22.9022 38.5714 23.3248V28.0573Z" fill="#47F4FF" />
            <path opacity="0.1" d="M40.4643 23.1121C38.8457 22.6906 37.2644 22.1429 35.7357 21.4742C34.2317 20.8376 32.7799 20.0897 31.3929 19.237L31 19L30.6143 19.2439C29.2273 20.0967 27.7754 20.8446 26.2714 21.4812C24.7402 22.1478 23.1565 22.6932 21.5357 23.1121L21 23.2445V29.0573C21 38.3897 30.6643 41.8815 30.7571 41.9164L31 42L31.2429 41.9164C31.3429 41.9164 41 38.3967 41 29.0573V23.2445L40.4643 23.1121ZM39.5714 29.0573C39.5714 36.7239 32.4286 39.937 31 40.5085C29.5714 39.937 22.4286 36.717 22.4286 29.0573V24.3248C23.9353 23.9022 25.4103 23.3782 26.8429 22.7567C28.2755 22.1524 29.6644 21.4538 31 20.6658C32.3356 21.4538 33.7245 22.1524 35.1571 22.7567C36.5897 23.3782 38.0647 23.9022 39.5714 24.3248V29.0573Z" fill="#47F4FF" />
            <defs>
                <filter id="filter0_i_156_72" x="0" y="0" width="59" height="62" filterUnits="userSpaceOnUse" color-interpolation-filters="sRGB">
                    <feFlood flood-opacity="0" result="BackgroundImageFix" />
                    <feBlend mode="normal" in="SourceGraphic" in2="BackgroundImageFix" result="shape" />
                    <feColorMatrix in="SourceAlpha" type="matrix" values="0 0 0 0 0 0 0 0 0 0 0 0 0 0 0 0 0 0 127 0" result="hardAlpha" />
                    <feOffset dy="4" />
                    <feGaussianBlur stdDeviation="12.5" />
                    <feComposite in2="hardAlpha" operator="arithmetic" k2="-1" k3="1" />
                    <feColorMatrix type="matrix" values="0 0 0 0 0 0 0 0 0 0 0 0 0 0 0 0 0 0 0.35 0" />
                    <feBlend mode="normal" in2="shape" result="effect1_innerShadow_156_72" />
                </filter>
                <linearGradient id="paint0_linear_156_72" x1="153.5" y1="-136" x2="14.5" y2="53.5" gradientUnits="userSpaceOnUse">
                    <stop stop-color="#47F4FF" />
                    <stop offset="1" stop-color="#47F4FF" stop-opacity="0" />
                </linearGradient>
            </defs>
        </symbol>
        <symbol id="icon-nft" viewBox="0 0 59 58">
            <g filter="url(#filter0_i_156_51)">
                <ellipse cx="29.5" cy="29" rx="29.5" ry="29" fill="url(#paint0_linear_156_51)" />
            </g>
            <path d="M58 29C58 44.4479 45.2563 57 29.5 57C13.7437 57 1 44.4479 1 29C1 13.5521 13.7437 1 29.5 1C45.2563 1 58 13.5521 58 29Z" stroke="#B35EC8" stroke-width="2" />
            <path d="M37.3653 24.9088L36.3534 25.9207H35.0807L35.0807 24.648L36.0926 23.6361C36.3199 23.4087 36.4087 23.0773 36.3255 22.7667C36.2423 22.4561 35.9997 22.2136 35.6891 22.1303C35.3785 22.0471 35.0471 22.1359 34.8197 22.3632L33.5469 23.6361C33.3769 23.8042 33.2807 24.0331 33.2796 24.2724L33.2861 26.4425L32.1597 27.569C31.4267 27.2208 30.5761 27.2208 29.8431 27.569L28.7166 26.4425L28.7229 24.2724H28.7231C28.722 24.0331 28.6258 23.8042 28.4558 23.6361L27.183 22.3632C26.9556 22.1359 26.6242 22.0471 26.3136 22.1303C26.003 22.2136 25.7605 22.4561 25.6772 22.7667C25.594 23.0773 25.6828 23.4087 25.9101 23.6361L26.9221 24.648V25.9207H25.6493L24.6374 24.9088C24.4101 24.6814 24.0786 24.5927 23.7681 24.6759C23.4575 24.7591 23.2149 25.0017 23.1317 25.3123C23.0485 25.6228 23.1372 25.9543 23.3646 26.1816L24.6374 27.4544C24.8055 27.6245 25.0345 27.7207 25.2738 27.7217L27.4439 27.7152L28.5703 28.8417C28.2222 29.5747 28.2221 30.4253 28.5703 31.1583L27.4439 32.2848L25.2738 32.2783C25.0345 32.2793 24.8055 32.3755 24.6374 32.5456L23.3646 33.8184C23.1372 34.0457 23.0485 34.3772 23.1317 34.6877C23.2149 34.9983 23.4575 35.2409 23.7681 35.3241C24.0786 35.4073 24.4101 35.3186 24.6374 35.0912L25.6493 34.0793H26.9221V35.352L25.9101 36.3639C25.6828 36.5913 25.594 36.9227 25.6772 37.2333C25.7605 37.5439 26.003 37.7864 26.3136 37.8697C26.6242 37.9529 26.9556 37.8641 27.183 37.6368L28.4558 36.3639C28.6258 36.1958 28.722 35.9669 28.7231 35.7276L28.7166 33.5575L29.8431 32.431C30.576 32.7792 31.4266 32.7792 32.1597 32.431L33.2861 33.5575L33.2798 35.7276H33.2796C33.2807 35.9669 33.3769 36.1958 33.5469 36.3639L34.8197 37.6368C35.0471 37.8641 35.3785 37.9529 35.6891 37.8697C35.9997 37.7864 36.2423 37.5439 36.3255 37.2333C36.4087 36.9227 36.3199 36.5913 36.0926 36.3639L35.0807 35.352L35.0807 34.0793L36.3534 34.0793L37.3653 35.0912C37.5926 35.3186 37.9241 35.4073 38.2347 35.3241C38.5452 35.2409 38.7878 34.9983 38.871 34.6877C38.9542 34.3772 38.8655 34.0457 38.6381 33.8184L37.3653 32.5456C37.1972 32.3755 36.9682 32.2793 36.7289 32.2783L34.5589 32.2848L33.4324 31.1583C33.7806 30.4253 33.7806 29.5747 33.4324 28.8417L34.5589 27.7152L36.7289 27.7215V27.7217C36.9682 27.7207 37.1972 27.6245 37.3653 27.4544L38.6381 26.1816C38.8655 25.9543 38.9542 25.6228 38.871 25.3122C38.7878 25.0017 38.5452 24.7591 38.2347 24.6759C37.9241 24.5927 37.5927 24.6814 37.3653 24.9088V24.9088ZM31.6377 30.6363C31.469 30.8051 31.24 30.9 31.0014 30.9C30.7627 30.9 30.5338 30.8051 30.365 30.6363C30.1962 30.4676 30.1013 30.2386 30.1013 30C30.1013 29.7613 30.1962 29.5324 30.365 29.3636C30.5338 29.1949 30.7627 29.0999 31.0014 29.0999C31.24 29.0999 31.469 29.1949 31.6377 29.3636C31.8065 29.5324 31.9014 29.7613 31.9014 30C31.9014 30.2386 31.8065 30.4676 31.6377 30.6363Z" fill="url(#paint1_linear_156_51)" />
            <path d="M36.3653 23.9088L35.3534 24.9207H34.0807L34.0807 23.648L35.0926 22.6361C35.3199 22.4087 35.4087 22.0773 35.3255 21.7667C35.2423 21.4561 34.9997 21.2136 34.6891 21.1303C34.3785 21.0471 34.0471 21.1359 33.8197 21.3632L32.5469 22.6361C32.3769 22.8042 32.2807 23.0331 32.2796 23.2724L32.2861 25.4425L31.1597 26.569C30.4267 26.2208 29.5761 26.2208 28.8431 26.569L27.7166 25.4425L27.7229 23.2724H27.7231C27.722 23.0331 27.6258 22.8042 27.4558 22.6361L26.183 21.3632C25.9556 21.1359 25.6242 21.0471 25.3136 21.1303C25.003 21.2136 24.7605 21.4561 24.6772 21.7667C24.594 22.0773 24.6828 22.4087 24.9101 22.6361L25.9221 23.648V24.9207H24.6493L23.6374 23.9088C23.4101 23.6814 23.0786 23.5927 22.7681 23.6759C22.4575 23.7591 22.2149 24.0017 22.1317 24.3123C22.0485 24.6228 22.1372 24.9543 22.3646 25.1816L23.6374 26.4544C23.8055 26.6245 24.0345 26.7207 24.2738 26.7217L26.4439 26.7152L27.5703 27.8417C27.2222 28.5747 27.2221 29.4253 27.5703 30.1583L26.4439 31.2848L24.2738 31.2783C24.0345 31.2793 23.8055 31.3755 23.6374 31.5456L22.3646 32.8184C22.1372 33.0457 22.0485 33.3772 22.1317 33.6877C22.2149 33.9983 22.4575 34.2409 22.7681 34.3241C23.0786 34.4073 23.4101 34.3186 23.6374 34.0912L24.6493 33.0793H25.9221V34.352L24.9101 35.3639C24.6828 35.5913 24.594 35.9227 24.6772 36.2333C24.7605 36.5439 25.003 36.7864 25.3136 36.8697C25.6242 36.9529 25.9556 36.8641 26.183 36.6368L27.4558 35.3639C27.6258 35.1958 27.722 34.9669 27.7231 34.7276L27.7166 32.5575L28.8431 31.431C29.576 31.7792 30.4266 31.7792 31.1597 31.431L32.2861 32.5575L32.2798 34.7276H32.2796C32.2807 34.9669 32.3769 35.1958 32.5469 35.3639L33.8197 36.6368C34.0471 36.8641 34.3785 36.9529 34.6891 36.8697C34.9997 36.7864 35.2423 36.5439 35.3255 36.2333C35.4087 35.9227 35.3199 35.5913 35.0926 35.3639L34.0807 34.352L34.0807 33.0793L35.3534 33.0793L36.3653 34.0912C36.5926 34.3186 36.9241 34.4073 37.2347 34.3241C37.5452 34.2409 37.7878 33.9983 37.871 33.6877C37.9542 33.3772 37.8655 33.0457 37.6381 32.8184L36.3653 31.5456C36.1972 31.3755 35.9682 31.2793 35.7289 31.2783L33.5589 31.2848L32.4324 30.1583C32.7806 29.4253 32.7806 28.5747 32.4324 27.8417L33.5589 26.7152L35.7289 26.7215V26.7217C35.9682 26.7207 36.1972 26.6245 36.3653 26.4544L37.6381 25.1816C37.8655 24.9543 37.9542 24.6228 37.871 24.3122C37.7878 24.0017 37.5452 23.7591 37.2347 23.6759C36.9241 23.5927 36.5927 23.6814 36.3653 23.9088V23.9088ZM30.6377 29.6363C30.469 29.8051 30.24 29.9 30.0014 29.9C29.7627 29.9 29.5338 29.8051 29.365 29.6363C29.1962 29.4676 29.1013 29.2386 29.1013 29C29.1013 28.7613 29.1962 28.5324 29.365 28.3636C29.5338 28.1949 29.7627 28.0999 30.0014 28.0999C30.24 28.0999 30.469 28.1949 30.6377 28.3636C30.8065 28.5324 30.9014 28.7613 30.9014 29C30.9014 29.2386 30.8065 29.4676 30.6377 29.6363Z" fill="#B35EC8" />
            <defs>
                <filter id="filter0_i_156_51" x="0" y="0" width="59" height="62" filterUnits="userSpaceOnUse" color-interpolation-filters="sRGB">
                    <feFlood flood-opacity="0" result="BackgroundImageFix" />
                    <feBlend mode="normal" in="SourceGraphic" in2="BackgroundImageFix" result="shape" />
                    <feColorMatrix in="SourceAlpha" type="matrix" values="0 0 0 0 0 0 0 0 0 0 0 0 0 0 0 0 0 0 127 0" result="hardAlpha" />
                    <feOffset dy="4" />
                    <feGaussianBlur stdDeviation="12.5" />
                    <feComposite in2="hardAlpha" operator="arithmetic" k2="-1" k3="1" />
                    <feColorMatrix type="matrix" values="0 0 0 0 0 0 0 0 0 0 0 0 0 0 0 0 0 0 0.35 0" />
                    <feBlend mode="normal" in2="shape" result="effect1_innerShadow_156_51" />
                </filter>
                <linearGradient id="paint0_linear_156_51" x1="121" y1="-81.5" x2="18.5" y2="52.5" gradientUnits="userSpaceOnUse">
                    <stop stop-color="#B35EC8" />
                    <stop offset="1" stop-color="#B35EC8" stop-opacity="0" />
                </linearGradient>
                <linearGradient id="paint1_linear_156_51" x1="24.6374" y1="23.636" x2="37.3653" y2="36.364" gradientUnits="userSpaceOnUse">
                    <stop stop-color="#B35EC8" stop-opacity="0.47" />
                    <stop offset="1" stop-color="#B35EC8" stop-opacity="0" />
                </linearGradient>
            </defs>
        </symbol>
        <symbol id="icon-discord" viewBox="0 0 21 15">
            <path opacity="0.2" d="M17.789 1.25628C16.4118 0.661687 14.9548 0.239205 13.4566 0C13.2699 0.311325 13.0519 0.730059 12.9015 1.06318C11.2862 0.839056 9.68567 0.839056 8.1 1.06318C7.94972 0.730134 7.72676 0.311325 7.53842 0C6.03872 0.239315 4.5805 0.662873 3.20266 1.25938C0.460846 5.08256 -0.282439 8.81066 0.0891622 12.486C1.90771 13.7391 3.67007 14.5003 5.40273 14.9985C5.83334 14.4521 6.21399 13.8736 6.54075 13.269C5.91865 13.0504 5.31892 12.7811 4.7487 12.4642C4.89876 12.3616 5.04528 12.2546 5.18806 12.1435C8.64338 13.6348 12.3978 13.6348 15.8119 12.1435C15.9553 12.2539 16.1018 12.3608 16.2512 12.4642C15.6801 12.7819 15.0792 13.0518 14.4559 13.2706C14.7845 13.8776 15.1644 14.4567 15.5939 15C17.3282 14.5019 19.0922 13.7407 20.9107 12.486C21.3468 8.2254 20.1659 4.53144 17.789 1.2562V1.25628ZM7.01153 10.2257C5.97425 10.2257 5.12358 9.33219 5.12358 8.2441C5.12358 7.15601 5.95612 6.26094 7.01153 6.26094C8.06703 6.26094 8.91761 7.15442 8.89948 8.2441C8.90112 9.33219 8.06703 10.2257 7.01153 10.2257ZM13.9884 10.2257C12.9511 10.2257 12.1005 9.33219 12.1005 8.2441C12.1005 7.15601 12.933 6.26094 13.9884 6.26094C15.0439 6.26094 15.8944 7.15442 15.8763 8.2441C15.8763 9.33219 15.0439 10.2257 13.9884 10.2257Z" fill="white"/>
        </symbol>
        <symbol id="icon-face" viewBox="0 0 20 19.99">
            <g opacity="0.2">
                <path fill-rule="evenodd" clip-rule="evenodd" d="M19.9964 10.2837C20.1474 4.53083 15.474 -0.125826 9.77088 0.00259383C4.45419 0.122915 0.0329726 4.43712 0 9.99387C0.0271879 15.5587 4.47386 19.9383 9.88021 19.9927C15.5544 20.0499 19.8588 15.5281 19.9964 10.2837ZM2.76737 7.02408C2.4139 7.37784 2.20682 7.90177 2.30461 8.54019C2.38849 9.08799 2.71417 9.48424 3.16306 9.78505C3.23652 9.83422 3.2533 9.87876 3.23999 9.95974C3.11389 10.7135 3.19256 11.4447 3.49683 12.1481C3.92953 13.1488 4.67343 13.8713 5.57816 14.4417C6.61014 15.0931 7.75493 15.4228 8.95525 15.5738C10.0052 15.7057 11.0493 15.6559 12.0807 15.4228C13.4275 15.1189 14.6404 14.5664 15.6137 13.5951C15.7133 13.4957 15.8105 13.392 15.9049 13.2836C16.7119 12.3581 17.0694 11.2821 16.9034 10.0546C16.8808 9.89091 16.9202 9.81166 17.0474 9.71737C17.5773 9.32459 17.8989 8.81554 17.8347 8.12947C17.7717 7.45672 17.4315 6.95634 16.8155 6.68273C16.1485 6.38887 15.5104 6.47159 14.9383 6.93899C14.873 6.99221 14.833 6.99452 14.7659 6.95056C13.705 6.25119 12.536 5.85957 11.2755 5.73173C11.1958 5.72357 11.1161 5.71522 11.0327 5.70648C10.9683 5.69974 10.9018 5.69276 10.8312 5.68545C10.999 5.16384 11.1639 4.65045 11.3284 4.1384C11.4326 3.81385 11.5367 3.48984 11.6412 3.16461C11.663 3.1681 11.6833 3.17107 11.7026 3.17389C11.7405 3.17944 11.7746 3.18443 11.8082 3.19168C11.9935 3.23147 12.1787 3.27165 12.3639 3.31182C12.8222 3.41122 13.2804 3.51061 13.7397 3.60413C13.8728 3.63132 13.9382 3.67759 13.9758 3.81758C14.1539 4.47877 14.8122 4.90047 15.4775 4.79346C15.7759 4.74532 16.0298 4.60798 16.2211 4.41736C16.6164 4.02389 16.7445 3.40301 16.4458 2.87121C16.104 2.26338 15.0681 1.89101 14.3582 2.60447C14.3314 2.63129 14.3052 2.65964 14.2795 2.68957C14.2561 2.71659 14.234 2.73672 14.211 2.75071C14.1656 2.77812 14.1166 2.78144 14.0481 2.76651C13.439 2.6329 12.8294 2.50328 12.2195 2.37362C11.9924 2.32533 11.7652 2.27704 11.5381 2.22853C11.322 2.18214 11.1774 2.20148 11.0732 2.30448C11.0095 2.36716 10.9609 2.461 10.9203 2.59008C10.8197 2.9093 10.7189 3.22851 10.6182 3.54773C10.4166 4.18646 10.215 4.82518 10.0144 5.4639C10.0008 5.50709 9.98849 5.5443 9.96383 5.5699C9.94122 5.59303 9.90841 5.60648 9.85534 5.6062C9.29076 5.60215 8.73427 5.68198 8.18242 5.79883C7.19266 6.00824 6.27232 6.38193 5.43528 6.95287C5.35892 7.00493 5.31206 6.98411 5.24207 6.95172C5.16437 6.91577 5.08718 6.87744 5.00991 6.83907C4.80243 6.73603 4.59439 6.63272 4.37437 6.57456C3.80864 6.42466 3.18545 6.60525 2.76737 7.02408Z" fill="white"/>
                <path fill-rule="evenodd" clip-rule="evenodd" d="M7.69935 10.818C8.22518 10.8169 8.72902 10.3009 8.72671 9.76521C8.72439 9.18443 8.23675 8.69678 7.65944 8.69678C7.08965 8.69678 6.60431 9.18616 6.60547 9.75942C6.60721 10.3396 7.10237 10.8192 7.69935 10.818ZM13.5158 9.7681C13.5182 10.3223 13.0207 10.818 12.4613 10.8186C11.8794 10.8192 11.4033 10.3298 11.4027 9.72934C11.4021 9.1798 11.8927 8.69909 12.4555 8.69736C13.0351 8.69504 13.5129 9.17748 13.5158 9.7681ZM12.6898 12.41C12.8014 12.5204 12.8327 12.6876 12.7112 12.8282C12.5689 12.9919 12.4 13.1446 12.2149 13.2557C11.7087 13.5599 11.1493 13.7144 10.5628 13.7682C10.4427 13.7794 10.3229 13.7873 10.2267 13.7937L10.2267 13.7937C10.1885 13.7962 10.1541 13.7985 10.1249 13.8006C9.18139 13.7902 8.36575 13.5773 7.64035 13.0683C7.55532 13.0087 7.47549 12.9335 7.41591 12.8496C7.31063 12.7003 7.32393 12.5176 7.42921 12.4123C7.58945 12.2509 7.79827 12.2173 7.96487 12.3139C8.01891 12.3455 8.07265 12.378 8.12643 12.4104C8.29542 12.5126 8.46479 12.6149 8.64515 12.6899C9.80555 13.173 10.9255 13.0711 11.9974 12.4198C12.0266 12.4021 12.055 12.3828 12.0835 12.3634L12.0835 12.3634L12.0835 12.3634C12.1147 12.3421 12.146 12.3209 12.1784 12.3018C12.3346 12.2127 12.5348 12.2561 12.6898 12.41Z" fill="white"/>
                </g>
        </symbol>
        <symbol id="icon-plane" viewBox="0 0 17 15">
            <path opacity="0.2" d="M15.8525 0.0986285L0.793795 6.20802C-0.233902 6.6423 -0.227956 7.24547 0.605243 7.51444L4.47142 8.78332L13.4166 2.84549C13.8396 2.57473 14.226 2.72039 13.9084 3.01706L6.66101 9.8985L6.39432 14.0921C6.78501 14.0921 6.95743 13.9035 7.17656 13.681L9.05444 11.7598L12.9605 14.7953C13.6808 15.2126 14.198 14.9982 14.3772 14.0939L16.9414 1.38002C17.2038 0.272877 16.5396 -0.228421 15.8525 0.0986285Z" fill="white"/>
        </symbol>
        <symbol id="icon-twitter" viewBox="0 0 18 15">
            <path opacity="0.2" d="M5.07303 14.9942C6.55074 15.0406 8.02338 14.8086 9.4039 14.3121C10.7844 13.8156 12.0448 13.0645 13.1106 12.1033C14.1764 11.1421 15.0259 9.9903 15.609 8.71591C16.1921 7.44152 16.4969 6.07043 16.5055 4.68367C17.1827 3.89764 17.6855 2.99258 17.9845 2.02168C18.0068 1.94497 18.005 1.86385 17.9793 1.78807C17.9536 1.7123 17.9051 1.64512 17.8396 1.5946C17.7742 1.54409 17.6945 1.51241 17.6103 1.50337C17.5261 1.49432 17.4408 1.50831 17.3649 1.54365C17.0106 1.7036 16.6118 1.75527 16.2245 1.69137C15.8373 1.62747 15.4811 1.45123 15.2063 1.18746C14.8555 0.827137 14.4312 0.536523 13.9584 0.33284C13.4856 0.129158 12.9741 0.0165504 12.4541 0.00169107C11.9341 -0.0131682 11.4162 0.0700228 10.9311 0.246335C10.446 0.422646 10.0036 0.688492 9.63001 1.02812C9.11855 1.49271 8.74392 2.0735 8.54254 2.71405C8.34117 3.3546 8.31989 4.03312 8.48077 4.68367C5.13299 4.87113 2.83451 3.38079 0.995721 1.33743C0.940481 1.27876 0.868219 1.23644 0.787762 1.21565C0.707304 1.19485 0.622131 1.19649 0.542646 1.22034C0.46316 1.2442 0.392801 1.28925 0.34016 1.34999C0.28752 1.41073 0.254877 1.48454 0.246216 1.56239C-0.104082 3.38494 0.14861 5.26438 0.970356 6.9483C1.7921 8.63222 3.14355 10.04 4.84318 10.9825C3.70357 12.2083 2.1032 12.974 0.376131 13.1196C0.283604 13.1339 0.19819 13.1751 0.131844 13.2373C0.0654969 13.2995 0.0215382 13.3796 0.00611911 13.4663C-0.00929994 13.5531 0.00459264 13.6422 0.0458525 13.7212C0.0871123 13.8002 0.153674 13.8651 0.236223 13.9069C1.73875 14.6112 3.39337 14.9831 5.07303 14.9942Z" fill="white"/>
        </symbol>
    </defs>
</svg>