<svg width="17" height="17" viewBox="0 0 17 17" fill="none" xmlns="http://www.w3.org/2000/svg">
<path opacity="0.3" d="M9 1.34211C9 1.22346 8.94732 1.10967 8.85355 1.02577C8.75979 0.94187 8.63261 0.894737 8.5 0.894737C8.36739 0.894737 8.24021 0.94187 8.14645 1.02577C8.05268 1.10967 8 1.22346 8 1.34211V2.70837C6.89981 2.81843 5.88356 3.28748 5.14561 4.02583C4.40766 4.76418 3.99979 5.72001 4 6.71053V12.002L2.414 13.4211H14.586L13 12.002V6.71053C13.0002 5.72001 12.5923 4.76418 11.8544 4.02583C11.1164 3.28748 10.1002 2.81843 9 2.70837V1.34211ZM8.5 0C8.89783 0 9.27936 0.1414 9.56066 0.393094C9.84197 0.644787 10 0.986157 10 1.34211V1.97468C12.309 2.55895 14 4.45758 14 6.71053V11.6316L17 14.3158H0L3 11.6316V6.71053C3 5.63923 3.39058 4.59717 4.11247 3.74249C4.83436 2.8878 5.84815 2.26714 7 1.97468V1.34211C7 0.986157 7.15804 0.644787 7.43934 0.393094C7.72064 0.1414 8.10218 0 8.5 0ZM8.5 17C7.92367 17.0001 7.36501 16.822 6.91855 16.496C6.47209 16.1699 6.16527 15.7158 6.05 15.2105H7.085C7.18807 15.4727 7.37955 15.6997 7.63301 15.8604C7.88647 16.021 8.1894 16.1073 8.5 16.1073C8.8106 16.1073 9.11353 16.021 9.36699 15.8604C9.62045 15.6997 9.81193 15.4727 9.915 15.2105H10.95C10.8347 15.7158 10.5279 16.1699 10.0815 16.496C9.63499 16.822 9.07633 17.0001 8.5 17Z" fill="white"/>
</svg>
