<svg width="21" height="17" viewBox="0 0 21 17" fill="none" xmlns="http://www.w3.org/2000/svg">
<path d="M1.25126 2.41759C2.35862 1.95462 3.94646 1.45537 5.49051 1.30022C7.15469 1.13255 8.5661 1.37905 9.38442 2.24116V14.4359C8.2145 13.7727 6.73176 13.6814 5.36414 13.819C3.88765 13.9692 2.39866 14.3959 1.25126 14.8338V2.41759ZM10.6357 2.24116C11.454 1.37905 12.8654 1.13255 14.5296 1.30022C16.0736 1.45537 17.6615 1.95462 18.7688 2.41759V14.8338C17.6202 14.3959 16.1325 13.9679 14.656 13.8203C13.2871 13.6814 11.8056 13.7715 10.6357 14.4359V2.24116ZM10.0101 1.11003C8.77756 0.0502115 6.99077 -0.107447 5.36414 0.0552165C3.46973 0.246659 1.55781 0.896061 0.366618 1.43786C0.25732 1.48756 0.164634 1.56768 0.0996263 1.66863C0.0346181 1.76958 3.32477e-05 1.88711 0 2.00718L0 15.771C2.89816e-05 15.8757 0.0263229 15.9787 0.0764732 16.0706C0.126623 16.1624 0.199027 16.2403 0.287052 16.2969C0.375077 16.3536 0.475909 16.3872 0.580312 16.3948C0.684715 16.4024 0.789352 16.3837 0.884638 16.3403C1.98825 15.8398 3.76628 15.238 5.48926 15.064C7.25228 14.8864 8.73002 15.1729 9.52206 16.1614C9.58069 16.2345 9.65497 16.2934 9.73943 16.334C9.82389 16.3745 9.91637 16.3955 10.0101 16.3955C10.1037 16.3955 10.1962 16.3745 10.2807 16.334C10.3651 16.2934 10.4394 16.2345 10.498 16.1614C11.2901 15.1729 12.7678 14.8864 14.5296 15.064C16.2538 15.238 18.0331 15.8398 19.1355 16.3403C19.2308 16.3837 19.3354 16.4024 19.4398 16.3948C19.5442 16.3872 19.645 16.3536 19.7331 16.2969C19.8211 16.2403 19.8935 16.1624 19.9436 16.0706C19.9938 15.9787 20.0201 15.8757 20.0201 15.771V2.00718C20.0201 1.88711 19.9855 1.76958 19.9205 1.66863C19.8555 1.56768 19.7628 1.48756 19.6535 1.43786C18.4623 0.896061 16.5504 0.246659 14.656 0.0552165C13.0293 -0.108698 11.2425 0.0502115 10.0101 1.11003Z" fill="#DED9FF" fill-opacity="0.15"/>
</svg>
