<svg width="17" height="17" viewBox="0 0 17 17" fill="none" xmlns="http://www.w3.org/2000/svg">
<path opacity="0.2" d="M2.68421 0H14.3158C15.0277 0 15.7104 0.282803 16.2138 0.786196C16.7172 1.28959 17 1.97234 17 2.68424V10.737C17 11.4489 16.7172 12.1316 16.2138 12.635C15.7104 13.1384 15.0277 13.4212 14.3158 13.4212H10.2125L6.89574 16.738C6.77061 16.8631 6.6112 16.9483 6.43766 16.9828C6.26412 17.0173 6.08425 16.9996 5.92078 16.9319C5.75731 16.8642 5.61759 16.7495 5.51927 16.6024C5.42095 16.4553 5.36846 16.2824 5.36842 16.1054V13.4212H2.68421C1.97231 13.4212 1.28957 13.1384 0.786187 12.635C0.2828 12.1316 0 11.4489 0 10.737V2.68424C0 1.97234 0.2828 1.28959 0.786187 0.786196C1.28957 0.282803 1.97231 0 2.68421 0V0ZM14.3158 0.894747H2.68421C2.20961 0.894747 1.75445 1.08328 1.41886 1.41888C1.08327 1.75447 0.894737 2.20964 0.894737 2.68424V10.737C0.894737 11.2116 1.08327 11.6667 1.41886 12.0023C1.75445 12.3379 2.20961 12.5265 2.68421 12.5265H6.26316V16.1054L9.84211 12.5265H14.3158C14.7904 12.5265 15.2455 12.3379 15.5811 12.0023C15.9167 11.6667 16.1053 11.2116 16.1053 10.737V2.68424C16.1053 2.20964 15.9167 1.75447 15.5811 1.41888C15.2455 1.08328 14.7904 0.894747 14.3158 0.894747V0.894747Z" fill="white"/>
</svg>
