<svg width="21" height="15" viewBox="0 0 21 15" fill="none" xmlns="http://www.w3.org/2000/svg">
<path opacity="0.2" d="M17.789 1.25628C16.4118 0.661687 14.9548 0.239205 13.4566 0C13.2699 0.311325 13.0519 0.730059 12.9015 1.06318C11.2862 0.839056 9.68567 0.839056 8.1 1.06318C7.94972 0.730134 7.72676 0.311325 7.53842 0C6.03872 0.239315 4.5805 0.662873 3.20266 1.25938C0.460846 5.08256 -0.282439 8.81066 0.0891622 12.486C1.90771 13.7391 3.67007 14.5003 5.40273 14.9985C5.83334 14.4521 6.21399 13.8736 6.54075 13.269C5.91865 13.0504 5.31892 12.7811 4.7487 12.4642C4.89876 12.3616 5.04528 12.2546 5.18806 12.1435C8.64338 13.6348 12.3978 13.6348 15.8119 12.1435C15.9553 12.2539 16.1018 12.3608 16.2512 12.4642C15.6801 12.7819 15.0792 13.0518 14.4559 13.2706C14.7845 13.8776 15.1644 14.4567 15.5939 15C17.3282 14.5019 19.0922 13.7407 20.9107 12.486C21.3468 8.2254 20.1659 4.53144 17.789 1.2562V1.25628ZM7.01153 10.2257C5.97425 10.2257 5.12358 9.33219 5.12358 8.2441C5.12358 7.15601 5.95612 6.26094 7.01153 6.26094C8.06703 6.26094 8.91761 7.15442 8.89948 8.2441C8.90112 9.33219 8.06703 10.2257 7.01153 10.2257ZM13.9884 10.2257C12.9511 10.2257 12.1005 9.33219 12.1005 8.2441C12.1005 7.15601 12.933 6.26094 13.9884 6.26094C15.0439 6.26094 15.8944 7.15442 15.8763 8.2441C15.8763 9.33219 15.0439 10.2257 13.9884 10.2257Z" fill="white"/>
</svg>
