<svg width="20" height="20" viewBox="0 0 20 20" fill="none" xmlns="http://www.w3.org/2000/svg">
<g opacity="0.2">
<path fill-rule="evenodd" clip-rule="evenodd" d="M19.9964 10.2837C20.1474 4.53083 15.474 -0.125826 9.77088 0.00259383C4.45419 0.122915 0.0329726 4.43712 0 9.99387C0.0271879 15.5587 4.47386 19.9383 9.88021 19.9927C15.5544 20.0499 19.8588 15.5281 19.9964 10.2837ZM2.76737 7.02408C2.4139 7.37784 2.20682 7.90177 2.30461 8.54019C2.38849 9.08799 2.71417 9.48424 3.16306 9.78505C3.23652 9.83422 3.2533 9.87876 3.23999 9.95974C3.11389 10.7135 3.19256 11.4447 3.49683 12.1481C3.92953 13.1488 4.67343 13.8713 5.57816 14.4417C6.61014 15.0931 7.75493 15.4228 8.95525 15.5738C10.0052 15.7057 11.0493 15.6559 12.0807 15.4228C13.4275 15.1189 14.6404 14.5664 15.6137 13.5951C15.7133 13.4957 15.8105 13.392 15.9049 13.2836C16.7119 12.3581 17.0694 11.2821 16.9034 10.0546C16.8808 9.89091 16.9202 9.81166 17.0474 9.71737C17.5773 9.32459 17.8989 8.81554 17.8347 8.12947C17.7717 7.45672 17.4315 6.95634 16.8155 6.68273C16.1485 6.38887 15.5104 6.47159 14.9383 6.93899C14.873 6.99221 14.833 6.99452 14.7659 6.95056C13.705 6.25119 12.536 5.85957 11.2755 5.73173C11.1958 5.72357 11.1161 5.71522 11.0327 5.70648C10.9683 5.69974 10.9018 5.69276 10.8312 5.68545C10.999 5.16384 11.1639 4.65045 11.3284 4.1384C11.4326 3.81385 11.5367 3.48984 11.6412 3.16461C11.663 3.1681 11.6833 3.17107 11.7026 3.17389C11.7405 3.17944 11.7746 3.18443 11.8082 3.19168C11.9935 3.23147 12.1787 3.27165 12.3639 3.31182C12.8222 3.41122 13.2804 3.51061 13.7397 3.60413C13.8728 3.63132 13.9382 3.67759 13.9758 3.81758C14.1539 4.47877 14.8122 4.90047 15.4775 4.79346C15.7759 4.74532 16.0298 4.60798 16.2211 4.41736C16.6164 4.02389 16.7445 3.40301 16.4458 2.87121C16.104 2.26338 15.0681 1.89101 14.3582 2.60447C14.3314 2.63129 14.3052 2.65964 14.2795 2.68957C14.2561 2.71659 14.234 2.73672 14.211 2.75071C14.1656 2.77812 14.1166 2.78144 14.0481 2.76651C13.439 2.6329 12.8294 2.50328 12.2195 2.37362C11.9924 2.32533 11.7652 2.27704 11.5381 2.22853C11.322 2.18214 11.1774 2.20148 11.0732 2.30448C11.0095 2.36716 10.9609 2.461 10.9203 2.59008C10.8197 2.9093 10.7189 3.22851 10.6182 3.54773C10.4166 4.18646 10.215 4.82518 10.0144 5.4639C10.0008 5.50709 9.98849 5.5443 9.96383 5.5699C9.94122 5.59303 9.90841 5.60648 9.85534 5.6062C9.29076 5.60215 8.73427 5.68198 8.18242 5.79883C7.19266 6.00824 6.27232 6.38193 5.43528 6.95287C5.35892 7.00493 5.31206 6.98411 5.24207 6.95172C5.16437 6.91577 5.08718 6.87744 5.00991 6.83907C4.80243 6.73603 4.59439 6.63272 4.37437 6.57456C3.80864 6.42466 3.18545 6.60525 2.76737 7.02408Z" fill="white"/>
<path fill-rule="evenodd" clip-rule="evenodd" d="M7.69935 10.818C8.22518 10.8169 8.72902 10.3009 8.72671 9.76521C8.72439 9.18443 8.23675 8.69678 7.65944 8.69678C7.08965 8.69678 6.60431 9.18616 6.60547 9.75942C6.60721 10.3396 7.10237 10.8192 7.69935 10.818ZM13.5158 9.7681C13.5182 10.3223 13.0207 10.818 12.4613 10.8186C11.8794 10.8192 11.4033 10.3298 11.4027 9.72934C11.4021 9.1798 11.8927 8.69909 12.4555 8.69736C13.0351 8.69504 13.5129 9.17748 13.5158 9.7681ZM12.6898 12.41C12.8014 12.5204 12.8327 12.6876 12.7112 12.8282C12.5689 12.9919 12.4 13.1446 12.2149 13.2557C11.7087 13.5599 11.1493 13.7144 10.5628 13.7682C10.4427 13.7794 10.3229 13.7873 10.2267 13.7937L10.2267 13.7937C10.1885 13.7962 10.1541 13.7985 10.1249 13.8006C9.18139 13.7902 8.36575 13.5773 7.64035 13.0683C7.55532 13.0087 7.47549 12.9335 7.41591 12.8496C7.31063 12.7003 7.32393 12.5176 7.42921 12.4123C7.58945 12.2509 7.79827 12.2173 7.96487 12.3139C8.01891 12.3455 8.07265 12.378 8.12643 12.4104C8.29542 12.5126 8.46479 12.6149 8.64515 12.6899C9.80555 13.173 10.9255 13.0711 11.9974 12.4198C12.0266 12.4021 12.055 12.3828 12.0835 12.3634L12.0835 12.3634L12.0835 12.3634C12.1147 12.3421 12.146 12.3209 12.1784 12.3018C12.3346 12.2127 12.5348 12.2561 12.6898 12.41Z" fill="white"/>
</g>
</svg>
