<svg width="12" height="15" viewBox="0 0 12 15" fill="none" xmlns="http://www.w3.org/2000/svg">
<path d="M8 6.31579C7.36348 6.31579 6.75303 6.06626 6.30294 5.6221C5.85286 5.17793 5.6 4.57551 5.6 3.94737V0.789474H2.4C1.97565 0.789474 1.56869 0.955827 1.26863 1.25194C0.968571 1.54805 0.8 1.94966 0.8 2.36842V12.6316C0.8 13.0503 0.968571 13.452 1.26863 13.7481C1.56869 14.0442 1.97565 14.2105 2.4 14.2105H9.6C10.0243 14.2105 10.4313 14.0442 10.7314 13.7481C11.0314 13.452 11.2 13.0503 11.2 12.6316V6.31579H8ZM6.4 3.94737C6.4 4.36613 6.56857 4.76774 6.86863 5.06385C7.16869 5.35996 7.57565 5.52632 8 5.52632H10.8688L6.4 1.11632V3.94737ZM2.4 0H6.4L12 5.52632V12.6316C12 13.2597 11.7471 13.8621 11.2971 14.3063C10.847 14.7505 10.2365 15 9.6 15H2.4C1.76348 15 1.15303 14.7505 0.702944 14.3063C0.252856 13.8621 0 13.2597 0 12.6316V2.36842C0 1.74028 0.252856 1.13786 0.702944 0.693695C1.15303 0.249529 1.76348 0 2.4 0V0Z" fill="white"/>
</svg>
