<svg width="16" height="20" viewBox="0 0 16 20" fill="none" xmlns="http://www.w3.org/2000/svg">
<path d="M1 9V8.25C0.585786 8.25 0.25 8.58579 0.25 9H1ZM15 9H15.75C15.75 8.58579 15.4142 8.25 15 8.25V9ZM15 19V19.75C15.4142 19.75 15.75 19.4142 15.75 19H15ZM1 19H0.25C0.25 19.4142 0.585786 19.75 1 19.75L1 19ZM1 9.75H15V8.25H1V9.75ZM14.25 9V19H15.75V9H14.25ZM15 18.25H1V19.75H15V18.25ZM1.75 19V9H0.25V19H1.75ZM4.75 5C4.75 3.20507 6.20507 1.75 8 1.75V0.25C5.37665 0.25 3.25 2.37665 3.25 5H4.75ZM8 1.75C9.79493 1.75 11.25 3.20507 11.25 5H12.75C12.75 2.37665 10.6234 0.25 8 0.25V1.75ZM3.25 5V9H4.75V5H3.25ZM11.25 5V9H12.75V5H11.25Z" fill="#2A78FB"/>
</svg>
