<svg width="59" height="58" viewBox="0 0 59 58" fill="none" xmlns="http://www.w3.org/2000/svg">
<g filter="url(#filter0_i_156_51)">
<ellipse cx="29.5" cy="29" rx="29.5" ry="29" fill="url(#paint0_linear_156_51)"/>
</g>
<path d="M58 29C58 44.4479 45.2563 57 29.5 57C13.7437 57 1 44.4479 1 29C1 13.5521 13.7437 1 29.5 1C45.2563 1 58 13.5521 58 29Z" stroke="#B35EC8" stroke-width="2"/>
<path d="M37.3653 24.9088L36.3534 25.9207H35.0807L35.0807 24.648L36.0926 23.6361C36.3199 23.4087 36.4087 23.0773 36.3255 22.7667C36.2423 22.4561 35.9997 22.2136 35.6891 22.1303C35.3785 22.0471 35.0471 22.1359 34.8197 22.3632L33.5469 23.6361C33.3769 23.8042 33.2807 24.0331 33.2796 24.2724L33.2861 26.4425L32.1597 27.569C31.4267 27.2208 30.5761 27.2208 29.8431 27.569L28.7166 26.4425L28.7229 24.2724H28.7231C28.722 24.0331 28.6258 23.8042 28.4558 23.6361L27.183 22.3632C26.9556 22.1359 26.6242 22.0471 26.3136 22.1303C26.003 22.2136 25.7605 22.4561 25.6772 22.7667C25.594 23.0773 25.6828 23.4087 25.9101 23.6361L26.9221 24.648V25.9207H25.6493L24.6374 24.9088C24.4101 24.6814 24.0786 24.5927 23.7681 24.6759C23.4575 24.7591 23.2149 25.0017 23.1317 25.3123C23.0485 25.6228 23.1372 25.9543 23.3646 26.1816L24.6374 27.4544C24.8055 27.6245 25.0345 27.7207 25.2738 27.7217L27.4439 27.7152L28.5703 28.8417C28.2222 29.5747 28.2221 30.4253 28.5703 31.1583L27.4439 32.2848L25.2738 32.2783C25.0345 32.2793 24.8055 32.3755 24.6374 32.5456L23.3646 33.8184C23.1372 34.0457 23.0485 34.3772 23.1317 34.6877C23.2149 34.9983 23.4575 35.2409 23.7681 35.3241C24.0786 35.4073 24.4101 35.3186 24.6374 35.0912L25.6493 34.0793H26.9221V35.352L25.9101 36.3639C25.6828 36.5913 25.594 36.9227 25.6772 37.2333C25.7605 37.5439 26.003 37.7864 26.3136 37.8697C26.6242 37.9529 26.9556 37.8641 27.183 37.6368L28.4558 36.3639C28.6258 36.1958 28.722 35.9669 28.7231 35.7276L28.7166 33.5575L29.8431 32.431C30.576 32.7792 31.4266 32.7792 32.1597 32.431L33.2861 33.5575L33.2798 35.7276H33.2796C33.2807 35.9669 33.3769 36.1958 33.5469 36.3639L34.8197 37.6368C35.0471 37.8641 35.3785 37.9529 35.6891 37.8697C35.9997 37.7864 36.2423 37.5439 36.3255 37.2333C36.4087 36.9227 36.3199 36.5913 36.0926 36.3639L35.0807 35.352L35.0807 34.0793L36.3534 34.0793L37.3653 35.0912C37.5926 35.3186 37.9241 35.4073 38.2347 35.3241C38.5452 35.2409 38.7878 34.9983 38.871 34.6877C38.9542 34.3772 38.8655 34.0457 38.6381 33.8184L37.3653 32.5456C37.1972 32.3755 36.9682 32.2793 36.7289 32.2783L34.5589 32.2848L33.4324 31.1583C33.7806 30.4253 33.7806 29.5747 33.4324 28.8417L34.5589 27.7152L36.7289 27.7215V27.7217C36.9682 27.7207 37.1972 27.6245 37.3653 27.4544L38.6381 26.1816C38.8655 25.9543 38.9542 25.6228 38.871 25.3122C38.7878 25.0017 38.5452 24.7591 38.2347 24.6759C37.9241 24.5927 37.5927 24.6814 37.3653 24.9088V24.9088ZM31.6377 30.6363C31.469 30.8051 31.24 30.9 31.0014 30.9C30.7627 30.9 30.5338 30.8051 30.365 30.6363C30.1962 30.4676 30.1013 30.2386 30.1013 30C30.1013 29.7613 30.1962 29.5324 30.365 29.3636C30.5338 29.1949 30.7627 29.0999 31.0014 29.0999C31.24 29.0999 31.469 29.1949 31.6377 29.3636C31.8065 29.5324 31.9014 29.7613 31.9014 30C31.9014 30.2386 31.8065 30.4676 31.6377 30.6363Z" fill="url(#paint1_linear_156_51)"/>
<path d="M36.3653 23.9088L35.3534 24.9207H34.0807L34.0807 23.648L35.0926 22.6361C35.3199 22.4087 35.4087 22.0773 35.3255 21.7667C35.2423 21.4561 34.9997 21.2136 34.6891 21.1303C34.3785 21.0471 34.0471 21.1359 33.8197 21.3632L32.5469 22.6361C32.3769 22.8042 32.2807 23.0331 32.2796 23.2724L32.2861 25.4425L31.1597 26.569C30.4267 26.2208 29.5761 26.2208 28.8431 26.569L27.7166 25.4425L27.7229 23.2724H27.7231C27.722 23.0331 27.6258 22.8042 27.4558 22.6361L26.183 21.3632C25.9556 21.1359 25.6242 21.0471 25.3136 21.1303C25.003 21.2136 24.7605 21.4561 24.6772 21.7667C24.594 22.0773 24.6828 22.4087 24.9101 22.6361L25.9221 23.648V24.9207H24.6493L23.6374 23.9088C23.4101 23.6814 23.0786 23.5927 22.7681 23.6759C22.4575 23.7591 22.2149 24.0017 22.1317 24.3123C22.0485 24.6228 22.1372 24.9543 22.3646 25.1816L23.6374 26.4544C23.8055 26.6245 24.0345 26.7207 24.2738 26.7217L26.4439 26.7152L27.5703 27.8417C27.2222 28.5747 27.2221 29.4253 27.5703 30.1583L26.4439 31.2848L24.2738 31.2783C24.0345 31.2793 23.8055 31.3755 23.6374 31.5456L22.3646 32.8184C22.1372 33.0457 22.0485 33.3772 22.1317 33.6877C22.2149 33.9983 22.4575 34.2409 22.7681 34.3241C23.0786 34.4073 23.4101 34.3186 23.6374 34.0912L24.6493 33.0793H25.9221V34.352L24.9101 35.3639C24.6828 35.5913 24.594 35.9227 24.6772 36.2333C24.7605 36.5439 25.003 36.7864 25.3136 36.8697C25.6242 36.9529 25.9556 36.8641 26.183 36.6368L27.4558 35.3639C27.6258 35.1958 27.722 34.9669 27.7231 34.7276L27.7166 32.5575L28.8431 31.431C29.576 31.7792 30.4266 31.7792 31.1597 31.431L32.2861 32.5575L32.2798 34.7276H32.2796C32.2807 34.9669 32.3769 35.1958 32.5469 35.3639L33.8197 36.6368C34.0471 36.8641 34.3785 36.9529 34.6891 36.8697C34.9997 36.7864 35.2423 36.5439 35.3255 36.2333C35.4087 35.9227 35.3199 35.5913 35.0926 35.3639L34.0807 34.352L34.0807 33.0793L35.3534 33.0793L36.3653 34.0912C36.5926 34.3186 36.9241 34.4073 37.2347 34.3241C37.5452 34.2409 37.7878 33.9983 37.871 33.6877C37.9542 33.3772 37.8655 33.0457 37.6381 32.8184L36.3653 31.5456C36.1972 31.3755 35.9682 31.2793 35.7289 31.2783L33.5589 31.2848L32.4324 30.1583C32.7806 29.4253 32.7806 28.5747 32.4324 27.8417L33.5589 26.7152L35.7289 26.7215V26.7217C35.9682 26.7207 36.1972 26.6245 36.3653 26.4544L37.6381 25.1816C37.8655 24.9543 37.9542 24.6228 37.871 24.3122C37.7878 24.0017 37.5452 23.7591 37.2347 23.6759C36.9241 23.5927 36.5927 23.6814 36.3653 23.9088V23.9088ZM30.6377 29.6363C30.469 29.8051 30.24 29.9 30.0014 29.9C29.7627 29.9 29.5338 29.8051 29.365 29.6363C29.1962 29.4676 29.1013 29.2386 29.1013 29C29.1013 28.7613 29.1962 28.5324 29.365 28.3636C29.5338 28.1949 29.7627 28.0999 30.0014 28.0999C30.24 28.0999 30.469 28.1949 30.6377 28.3636C30.8065 28.5324 30.9014 28.7613 30.9014 29C30.9014 29.2386 30.8065 29.4676 30.6377 29.6363Z" fill="#B35EC8"/>
<defs>
<filter id="filter0_i_156_51" x="0" y="0" width="59" height="62" filterUnits="userSpaceOnUse" color-interpolation-filters="sRGB">
<feFlood flood-opacity="0" result="BackgroundImageFix"/>
<feBlend mode="normal" in="SourceGraphic" in2="BackgroundImageFix" result="shape"/>
<feColorMatrix in="SourceAlpha" type="matrix" values="0 0 0 0 0 0 0 0 0 0 0 0 0 0 0 0 0 0 127 0" result="hardAlpha"/>
<feOffset dy="4"/>
<feGaussianBlur stdDeviation="12.5"/>
<feComposite in2="hardAlpha" operator="arithmetic" k2="-1" k3="1"/>
<feColorMatrix type="matrix" values="0 0 0 0 0 0 0 0 0 0 0 0 0 0 0 0 0 0 0.35 0"/>
<feBlend mode="normal" in2="shape" result="effect1_innerShadow_156_51"/>
</filter>
<linearGradient id="paint0_linear_156_51" x1="121" y1="-81.5" x2="18.5" y2="52.5" gradientUnits="userSpaceOnUse">
<stop stop-color="#B35EC8"/>
<stop offset="1" stop-color="#B35EC8" stop-opacity="0"/>
</linearGradient>
<linearGradient id="paint1_linear_156_51" x1="24.6374" y1="23.636" x2="37.3653" y2="36.364" gradientUnits="userSpaceOnUse">
<stop stop-color="#B35EC8" stop-opacity="0.47"/>
<stop offset="1" stop-color="#B35EC8" stop-opacity="0"/>
</linearGradient>
</defs>
</svg>
