<svg width="10" height="18" viewBox="0 0 10 18" fill="none" xmlns="http://www.w3.org/2000/svg">
<path opacity="0.2" d="M0.357142 3.51955C0.625 2.71508 0.892857 2.11173 1.42857 1.60894C1.875 1.10615 2.41071 0.70391 3.125 0.402234C3.83929 0.100558 4.55357 0 5.35714 0C5.98214 0 6.60714 0.100558 7.14286 0.301675C7.67857 0.502793 8.21429 0.804468 8.66071 1.2067C9.10714 1.60894 9.46429 2.11173 9.64286 2.71508C9.91071 3.31843 10 4.02235 10 4.72626C10 5.73184 9.82143 6.53631 9.46428 7.24022C9.10714 7.94413 8.57143 8.54749 8.03571 9.2514L6.875 10.5587C6.60714 10.8603 6.33929 11.162 6.25 11.4637C6.07143 11.7654 5.98214 12.1676 5.98214 12.5698C5.89286 12.9721 5.89286 13.2737 5.89286 14.0782H4.46429C4.46429 13.2737 4.46429 12.9721 4.55357 12.3687C4.64286 11.8659 4.82143 11.3631 5 10.8603C5.17857 10.4581 5.44643 10.0559 5.80357 9.65363C6.16071 9.2514 6.60714 8.84916 7.05357 8.24581C7.5 7.74302 7.85714 7.24022 8.125 6.73743C8.39286 6.23464 8.57143 5.53073 8.57143 4.92737C8.57143 4.42458 8.48214 3.92179 8.30357 3.51955C8.125 3.11732 7.85714 2.71508 7.58928 2.41341C7.32143 2.11173 6.96429 1.91061 6.51786 1.7095C6.07143 1.50838 5.71429 1.40782 5.26786 1.40782C4.64286 1.40782 4.10714 1.50838 3.66071 1.81006C3.21429 2.01117 2.76786 2.41341 2.5 2.81564C2.23214 3.21788 1.96429 3.72067 1.78571 4.32402C1.60714 4.92737 1.42857 5.22905 1.42857 5.93296H0C0 5.02793 0.0892853 4.32402 0.357142 3.51955ZM5.89286 15.9888V18H4.10714V15.9888H5.89286Z" fill="white"/>
</svg>
