<svg width="15" height="15" viewBox="0 0 15 15" fill="none" xmlns="http://www.w3.org/2000/svg">
<path d="M5.71004 1.68839e-08C6.80238 -2.34829e-05 7.8718 0.313142 8.79141 0.902341C9.71103 1.49154 10.4423 2.33204 10.8983 3.32412C11.3544 4.3162 11.5161 5.41823 11.3644 6.49943C11.2127 7.58064 10.7538 8.59566 10.0423 9.42406L15 14.3793L14.379 15L9.4204 10.0439C8.72108 10.6416 7.88759 11.0616 6.9909 11.268C6.09421 11.4744 5.1609 11.4611 4.27046 11.2293C3.38001 10.9974 2.55881 10.554 1.8768 9.93658C1.19479 9.31919 0.672164 8.5462 0.353446 7.68343C0.0347275 6.82067 -0.0706445 5.89369 0.0463038 4.98145C0.163252 4.06921 0.499056 3.19874 1.02512 2.44416C1.55117 1.68959 2.2519 1.07328 3.06762 0.647708C3.88334 0.22214 4.78988 -7.07217e-05 5.71004 1.68839e-08V1.68839e-08ZM5.71004 0.877963C4.42873 0.877963 3.19989 1.38671 2.29387 2.29229C1.38784 3.19786 0.87884 4.42608 0.87884 5.70676C0.87884 6.98744 1.38784 8.21566 2.29387 9.12124C3.19989 10.0268 4.42873 10.5356 5.71004 10.5356C6.99135 10.5356 8.22019 10.0268 9.12622 9.12124C10.0322 8.21566 10.5412 6.98744 10.5412 5.70676C10.5412 4.42608 10.0322 3.19786 9.12622 2.29229C8.22019 1.38671 6.99135 0.877963 5.71004 0.877963Z" fill="#BBFF64"/>
</svg>
