<svg width="19" height="17" viewBox="0 0 19 17" fill="none" xmlns="http://www.w3.org/2000/svg">
<path d="M17.5934 0.00174061C17.3587 0.0187457 17.1284 0.07358 16.9114 0.164104H16.9085C16.7002 0.246379 15.7098 0.661389 14.204 1.29046L8.80825 3.55409C4.93648 5.17773 1.13049 6.77661 1.13049 6.77661L1.17581 6.75914C1.17581 6.75914 0.913401 6.84505 0.6393 7.03217C0.469962 7.13951 0.324247 7.27995 0.210971 7.445C0.0764782 7.64158 -0.0317004 7.94229 0.00850112 8.25318C0.0742855 8.77886 0.416364 9.09412 0.661959 9.26814C0.910477 9.44433 1.1473 9.52661 1.1473 9.52661H1.15315L4.72232 10.7243C4.88239 11.2362 5.80995 14.2738 6.03288 14.9734C6.16445 15.3914 6.29237 15.6528 6.45244 15.8523C6.52992 15.9542 6.62056 16.0394 6.72947 16.1078C6.78609 16.1406 6.84646 16.1665 6.90928 16.185L6.87273 16.1763C6.8837 16.1792 6.89247 16.1879 6.90051 16.1908C6.92974 16.1988 6.94948 16.2017 6.98676 16.2076C7.55177 16.3779 8.00568 16.0284 8.00568 16.0284L8.03127 16.0081L10.1386 14.0968L13.6704 16.7959L13.7509 16.8301C14.4869 17.1519 15.2325 16.9728 15.6264 16.6568C16.0233 16.3386 16.1776 15.9316 16.1776 15.9316L16.2031 15.8661L18.9325 1.93846C19.0099 1.5948 19.0297 1.27298 18.9442 0.960635C18.856 0.644517 18.6524 0.372635 18.3733 0.198325C18.139 0.0564309 17.8673 -0.0120578 17.5934 0.00174061V0.00174061ZM17.5196 1.49432C17.5166 1.54019 17.5254 1.5351 17.5049 1.6232V1.63121L14.8012 15.4139C14.7895 15.4336 14.7698 15.4766 14.7157 15.5195C14.6587 15.5647 14.6134 15.5931 14.3758 15.4991L10.056 12.2002L7.44652 14.5694L7.99472 11.0818L15.0526 4.529C15.3436 4.25961 15.2463 4.20282 15.2463 4.20282C15.2668 3.87226 14.8071 4.10598 14.8071 4.10598L5.90716 9.59796L5.90424 9.5834L1.63849 8.1527V8.14979L1.62753 8.14761C1.63501 8.14513 1.64233 8.14221 1.64946 8.13887L1.67285 8.12722L1.6955 8.11921C1.6955 8.11921 5.50442 6.52033 9.37619 4.89669C11.3146 4.08341 13.2677 3.26431 14.7698 2.63233C16.2719 2.00399 17.3821 1.54311 17.445 1.51835C17.5049 1.49505 17.4764 1.49505 17.5196 1.49505V1.49432Z" fill="#BBFF64"/>
</svg>
