<svg width="59" height="58" viewBox="0 0 59 58" fill="none" xmlns="http://www.w3.org/2000/svg">
<g filter="url(#filter0_i_156_72)">
<ellipse cx="29.5" cy="29" rx="29.5" ry="29" fill="url(#paint0_linear_156_72)"/>
</g>
<path d="M58 29C58 44.4479 45.2563 57 29.5 57C13.7437 57 1 44.4479 1 29C1 13.5521 13.7437 1 29.5 1C45.2563 1 58 13.5521 58 29Z" stroke="#47F4FF" stroke-width="2"/>
<path d="M39.4643 22.1121C37.8457 21.6906 36.2644 21.1429 34.7357 20.4742C33.2317 19.8376 31.7799 19.0897 30.3929 18.237L30 18L29.6143 18.2439C28.2273 19.0967 26.7754 19.8446 25.2714 20.4812C23.7402 21.1478 22.1565 21.6932 20.5357 22.1121L20 22.2445V28.0573C20 37.3897 29.6643 40.8815 29.7571 40.9164L30 41L30.2429 40.9164C30.3429 40.9164 40 37.3967 40 28.0573V22.2445L39.4643 22.1121ZM38.5714 28.0573C38.5714 35.7239 31.4286 38.937 30 39.5085C28.5714 38.937 21.4286 35.717 21.4286 28.0573V23.3248C22.9353 22.9022 24.4103 22.3782 25.8429 21.7567C27.2755 21.1524 28.6644 20.4538 30 19.6658C31.3356 20.4538 32.7245 21.1524 34.1571 21.7567C35.5897 22.3782 37.0647 22.9022 38.5714 23.3248V28.0573Z" fill="#47F4FF"/>
<path opacity="0.1" d="M40.4643 23.1121C38.8457 22.6906 37.2644 22.1429 35.7357 21.4742C34.2317 20.8376 32.7799 20.0897 31.3929 19.237L31 19L30.6143 19.2439C29.2273 20.0967 27.7754 20.8446 26.2714 21.4812C24.7402 22.1478 23.1565 22.6932 21.5357 23.1121L21 23.2445V29.0573C21 38.3897 30.6643 41.8815 30.7571 41.9164L31 42L31.2429 41.9164C31.3429 41.9164 41 38.3967 41 29.0573V23.2445L40.4643 23.1121ZM39.5714 29.0573C39.5714 36.7239 32.4286 39.937 31 40.5085C29.5714 39.937 22.4286 36.717 22.4286 29.0573V24.3248C23.9353 23.9022 25.4103 23.3782 26.8429 22.7567C28.2755 22.1524 29.6644 21.4538 31 20.6658C32.3356 21.4538 33.7245 22.1524 35.1571 22.7567C36.5897 23.3782 38.0647 23.9022 39.5714 24.3248V29.0573Z" fill="#47F4FF"/>
<defs>
<filter id="filter0_i_156_72" x="0" y="0" width="59" height="62" filterUnits="userSpaceOnUse" color-interpolation-filters="sRGB">
<feFlood flood-opacity="0" result="BackgroundImageFix"/>
<feBlend mode="normal" in="SourceGraphic" in2="BackgroundImageFix" result="shape"/>
<feColorMatrix in="SourceAlpha" type="matrix" values="0 0 0 0 0 0 0 0 0 0 0 0 0 0 0 0 0 0 127 0" result="hardAlpha"/>
<feOffset dy="4"/>
<feGaussianBlur stdDeviation="12.5"/>
<feComposite in2="hardAlpha" operator="arithmetic" k2="-1" k3="1"/>
<feColorMatrix type="matrix" values="0 0 0 0 0 0 0 0 0 0 0 0 0 0 0 0 0 0 0.35 0"/>
<feBlend mode="normal" in2="shape" result="effect1_innerShadow_156_72"/>
</filter>
<linearGradient id="paint0_linear_156_72" x1="153.5" y1="-136" x2="14.5" y2="53.5" gradientUnits="userSpaceOnUse">
<stop stop-color="#47F4FF"/>
<stop offset="1" stop-color="#47F4FF" stop-opacity="0"/>
</linearGradient>
</defs>
</svg>
