<svg width="59" height="58" viewBox="0 0 59 58" fill="none" xmlns="http://www.w3.org/2000/svg">
<g filter="url(#filter0_i_156_68)">
<ellipse cx="29.5" cy="29" rx="29.5" ry="29" fill="url(#paint0_linear_156_68)"/>
</g>
<path d="M58.25 29C58.25 44.59 45.3903 57.25 29.5 57.25C13.6097 57.25 0.75 44.59 0.75 29C0.75 13.41 13.6097 0.75 29.5 0.75C45.3903 0.75 58.25 13.41 58.25 29Z" stroke="#BBFF64" stroke-width="1.5"/>
<path d="M39 22L22 29L29 32M39 22L32 39L29 32M39 22L29 32" stroke="url(#paint1_linear_156_68)" stroke-width="1.5" stroke-linecap="round" stroke-linejoin="round"/>
<path d="M38 21L21 28L28 31M38 21L31 38L28 31M38 21L28 31" stroke="#BBFF64" stroke-width="1.5" stroke-linecap="round" stroke-linejoin="round"/>
<defs>
<filter id="filter0_i_156_68" x="0" y="0" width="59" height="62" filterUnits="userSpaceOnUse" color-interpolation-filters="sRGB">
<feFlood flood-opacity="0" result="BackgroundImageFix"/>
<feBlend mode="normal" in="SourceGraphic" in2="BackgroundImageFix" result="shape"/>
<feColorMatrix in="SourceAlpha" type="matrix" values="0 0 0 0 0 0 0 0 0 0 0 0 0 0 0 0 0 0 127 0" result="hardAlpha"/>
<feOffset dy="4"/>
<feGaussianBlur stdDeviation="12.5"/>
<feComposite in2="hardAlpha" operator="arithmetic" k2="-1" k3="1"/>
<feColorMatrix type="matrix" values="0 0 0 0 0 0 0 0 0 0 0 0 0 0 0 0 0 0 0.35 0"/>
<feBlend mode="normal" in2="shape" result="effect1_innerShadow_156_68"/>
</filter>
<linearGradient id="paint0_linear_156_68" x1="149.5" y1="-87.5" x2="8.5" y2="51" gradientUnits="userSpaceOnUse">
<stop stop-color="#BBFF64"/>
<stop offset="1" stop-color="#BBFF64" stop-opacity="0"/>
</linearGradient>
<linearGradient id="paint1_linear_156_68" x1="30.5" y1="22" x2="30.5" y2="39" gradientUnits="userSpaceOnUse">
<stop stop-color="#BBFF64" stop-opacity="0.35"/>
<stop offset="1" stop-color="#BBFF64" stop-opacity="0"/>
</linearGradient>
</defs>
</svg>
