<svg width="211" height="96" viewBox="0 0 211 96" fill="none" xmlns="http://www.w3.org/2000/svg">
<g filter="url(#filter0_i_156_78)">
<circle cx="107.5" cy="43.5" r="31.5" fill="#8A78FF"/>
</g>
<g filter="url(#filter1_di_156_78)">
<rect x="25" y="21" width="161" height="46" rx="23" fill="#6D5DD3"/>
</g>
<path d="M100.218 56.3551C65.5 30.0001 45.5 42.5002 34 62.0003C37 64.5003 41.5248 66.6454 49.0495 67.0002H161.921C177.171 67.0002 183.328 56.3227 185 51.0001L186 46.5001V44.0001C168.442 45.4195 128.901 78.1291 100.218 56.3551Z" fill="#5E50B3"/>
<g filter="url(#filter2_d_156_78)">
<path d="M87.0287 15.4096C81.8219 12.5248 74.896 11 67 11C59.104 11 52.1781 12.5248 46.9713 15.4096C41.9054 18.2163 39 22.1602 39 26.2308V39.7692C39 43.8398 41.9054 47.7837 46.9713 50.5904C52.1781 53.4752 59.104 55 67 55C74.896 55 81.8219 53.4752 87.0287 50.5904C92.0946 47.7837 95 43.8398 95 39.7692V26.2308C95 22.1602 92.0946 18.2163 87.0287 15.4096ZM48.3377 18.4366C53.054 15.8239 59.6818 14.3846 67 14.3846C74.3182 14.3846 80.946 15.8239 85.6623 18.4366C89.6553 20.649 91.9455 23.4898 91.9455 26.2308C91.9455 28.9717 89.6553 31.8126 85.6623 34.025C80.946 36.6376 74.3182 38.0769 67 38.0769C59.6818 38.0769 53.054 36.6376 48.3377 34.025C44.3447 31.8126 42.0545 28.9717 42.0545 26.2308C42.0545 23.4898 44.3447 20.649 48.3377 18.4366ZM65.4727 41.4418V51.5928C60.5763 51.4569 56.0367 50.668 52.2364 49.3068V39.3196C56.1235 40.5965 60.5969 41.3177 65.4727 41.4418ZM68.5273 41.4418C73.4031 41.3177 77.8765 40.5965 81.7636 39.3196V49.3065C77.9633 50.668 73.4237 51.4566 68.5273 51.5928V41.4418ZM42.0545 39.7692V33.2852C43.5073 34.8157 45.1661 36.0864 46.9713 37.0519C47.6943 37.4502 48.4318 37.8153 49.1818 38.1463V48.0068C48.898 47.865 48.6165 47.7171 48.3377 47.5634C44.3447 45.351 42.0545 42.5102 42.0545 39.7692ZM85.6623 47.5634C85.3834 47.7171 85.102 47.865 84.8182 48.0068V38.1463C85.5682 37.8153 86.3057 37.4502 87.0287 37.0519C88.8339 36.0864 90.4927 34.8157 91.9455 33.2852V39.7692C91.9455 42.5102 89.6553 45.351 85.6623 47.5634Z" fill="#E1E1FF"/>
</g>
<g opacity="0.1" filter="url(#filter3_d_156_78)">
<path d="M88.0287 17.4096C82.8219 14.5248 75.896 13 68 13C60.104 13 53.1781 14.5248 47.9713 17.4096C42.9054 20.2163 40 24.1602 40 28.2308V41.7692C40 45.8398 42.9054 49.7837 47.9713 52.5904C53.1781 55.4752 60.104 57 68 57C75.896 57 82.8219 55.4752 88.0287 52.5904C93.0946 49.7837 96 45.8398 96 41.7692V28.2308C96 24.1602 93.0946 20.2163 88.0287 17.4096ZM49.3377 20.4366C54.054 17.8239 60.6818 16.3846 68 16.3846C75.3182 16.3846 81.946 17.8239 86.6623 20.4366C90.6553 22.649 92.9455 25.4898 92.9455 28.2308C92.9455 30.9717 90.6553 33.8126 86.6623 36.025C81.946 38.6376 75.3182 40.0769 68 40.0769C60.6818 40.0769 54.054 38.6376 49.3377 36.025C45.3447 33.8126 43.0545 30.9717 43.0545 28.2308C43.0545 25.4898 45.3447 22.649 49.3377 20.4366ZM66.4727 43.4418V53.5928C61.5763 53.4569 57.0367 52.668 53.2364 51.3068V41.3196C57.1235 42.5965 61.5969 43.3177 66.4727 43.4418ZM69.5273 43.4418C74.4031 43.3177 78.8765 42.5965 82.7636 41.3196V51.3065C78.9633 52.668 74.4237 53.4566 69.5273 53.5928V43.4418ZM43.0545 41.7692V35.2852C44.5073 36.8157 46.1661 38.0864 47.9713 39.0519C48.6943 39.4502 49.4318 39.8153 50.1818 40.1463V50.0068C49.898 49.865 49.6165 49.7171 49.3377 49.5634C45.3447 47.351 43.0545 44.5102 43.0545 41.7692ZM86.6623 49.5634C86.3835 49.7171 86.102 49.865 85.8182 50.0068V40.1463C86.5682 39.8153 87.3057 39.4502 88.0287 39.0519C89.8339 38.0864 91.4927 36.8157 92.9455 35.2852V41.7692C92.9455 44.5102 90.6553 47.351 86.6623 49.5634Z" fill="#E1E1FF"/>
</g>
<path d="M148 50H147V48H148V50ZM132 46H131V43H132V44H133V45H132V46ZM147 44V43H148V46H147V45H146V44H147ZM142 45V44H144V45H142ZM139 45V44H140V45H139ZM135 45V44H137V45H135ZM132 50H131V48H132V50ZM131 37V36H132V37H131ZM131 39H132V41H131V39ZM143 37V36H145V37H143ZM134 37V36H136V37H134ZM138 37V36H141V37H140V38H139V37H138ZM148 41H147V39H148V41ZM147 37V36H148V37H147ZM140 49H139V47H140V49ZM140 42H139V40H140V42ZM131 52H132V53H131V52ZM143 52H145V53H143V52ZM134 52H136V53H134V52ZM138 52H139V51H140V52H141V53H138V52ZM147 52H148V53H147V52Z" fill="white"/>
<path opacity="0.3" d="M123 50H122V48H123V50ZM107 46H106V43H107V44H108V45H107V46ZM122 44V43H123V46H122V45H121V44H122ZM117 45V44H119V45H117ZM114 45V44H115V45H114ZM110 45V44H112V45H110ZM107 50H106V48H107V50ZM106 37V36H107V37H106ZM106 39H107V41H106V39ZM118 37V36H120V37H118ZM109 37V36H111V37H109ZM113 37V36H116V37H115V38H114V37H113ZM123 41H122V39H123V41ZM122 37V36H123V37H122ZM115 49H114V47H115V49ZM115 42H114V40H115V42ZM106 52H107V53H106V52ZM118 52H120V53H118V52ZM109 52H111V53H109V52ZM113 52H114V51H115V52H116V53H113V52ZM122 52H123V53H122V52Z" fill="white"/>
<g opacity="0.3">
<path d="M162 36H163V38.01C166.29 38.151 167 39.695 167 41H166C166 39.673 164.822 39 162.5 39C161.68 39 159 39.163 159 41.249C159 42.121 159 43.109 162.621 44.015L164.227 44.5C166.76 45.435 167 46.572 167 47.751C167 49.632 165.482 50.844 163 50.986V53H162V50.99C158.71 50.849 158 49.305 158 48H159C159 49.327 160.178 50 162.5 50C163.32 50 166 49.837 166 47.751C166 46.879 166 45.891 162.379 44.985L160.773 44.5C158.24 43.565 158 42.428 158 41.249C158 39.368 159.518 38.156 162 38.014V36Z" fill="#E1E1FF"/>
</g>
<g filter="url(#filter4_b_156_78)">
<ellipse cx="67" cy="23" rx="19" ry="15" fill="white" fill-opacity="0.01"/>
</g>
<g filter="url(#filter5_bd_156_78)">
<path d="M80.5909 11.0065C77.0577 9.03962 72.358 8 67 8C61.642 8 56.9423 9.03962 53.4091 11.0065C49.9715 12.9202 48 15.6092 48 18.3846V27.6154C48 30.3908 49.9715 33.0798 53.4091 34.9935C56.9423 36.9604 61.642 38 67 38C72.358 38 77.0577 36.9604 80.5909 34.9935C84.0285 33.0798 86 30.3908 86 27.6154V18.3846C86 15.6092 84.0285 12.9202 80.5909 11.0065ZM54.3363 13.0704C57.5366 11.289 62.0341 10.3077 67 10.3077C71.9659 10.3077 76.4634 11.289 79.6637 13.0704C82.3732 14.5788 83.9273 16.5158 83.9273 18.3846C83.9273 20.2535 82.3732 22.1904 79.6637 23.6988C76.4634 25.4802 71.9659 26.4615 67 26.4615C62.0341 26.4615 57.5366 25.4802 54.3363 23.6988C51.6268 22.1904 50.0727 20.2535 50.0727 18.3846C50.0727 16.5158 51.6268 14.5788 54.3363 13.0704ZM65.9636 28.7558V35.6769C62.6411 35.5842 59.5606 35.0463 56.9818 34.1183V27.3088C59.6195 28.1794 62.655 28.6712 65.9636 28.7558ZM68.0364 28.7558C71.345 28.6712 74.3805 28.1794 77.0182 27.3088V34.1181C74.4394 35.0463 71.3589 35.584 68.0364 35.6769V28.7558ZM50.0727 27.6154V23.1944C51.0585 24.2379 52.1841 25.1044 53.4091 25.7627C53.8997 26.0342 54.4001 26.2831 54.9091 26.5088V33.2319C54.7165 33.1352 54.5255 33.0344 54.3363 32.9296C51.6268 31.4212 50.0727 29.4842 50.0727 27.6154ZM79.6637 32.9296C79.4745 33.0344 79.2835 33.1352 79.0909 33.2319V26.5088C79.5999 26.2831 80.1003 26.0342 80.5909 25.7627C81.8159 25.1044 82.9415 24.2379 83.9273 23.1944V27.6154C83.9273 29.4842 82.3732 31.4212 79.6637 32.9296Z" fill="#BDADFF"/>
</g>
<defs>
<filter id="filter0_i_156_78" x="76" y="12" width="63" height="67" filterUnits="userSpaceOnUse" color-interpolation-filters="sRGB">
<feFlood flood-opacity="0" result="BackgroundImageFix"/>
<feBlend mode="normal" in="SourceGraphic" in2="BackgroundImageFix" result="shape"/>
<feColorMatrix in="SourceAlpha" type="matrix" values="0 0 0 0 0 0 0 0 0 0 0 0 0 0 0 0 0 0 127 0" result="hardAlpha"/>
<feOffset dy="4"/>
<feGaussianBlur stdDeviation="2"/>
<feComposite in2="hardAlpha" operator="arithmetic" k2="-1" k3="1"/>
<feColorMatrix type="matrix" values="0 0 0 0 0 0 0 0 0 0 0 0 0 0 0 0 0 0 0.25 0"/>
<feBlend mode="normal" in2="shape" result="effect1_innerShadow_156_78"/>
</filter>
<filter id="filter1_di_156_78" x="0" y="0" width="211" height="96" filterUnits="userSpaceOnUse" color-interpolation-filters="sRGB">
<feFlood flood-opacity="0" result="BackgroundImageFix"/>
<feColorMatrix in="SourceAlpha" type="matrix" values="0 0 0 0 0 0 0 0 0 0 0 0 0 0 0 0 0 0 127 0" result="hardAlpha"/>
<feOffset dy="4"/>
<feGaussianBlur stdDeviation="12.5"/>
<feComposite in2="hardAlpha" operator="out"/>
<feColorMatrix type="matrix" values="0 0 0 0 0 0 0 0 0 0 0 0 0 0 0 0 0 0 0.2 0"/>
<feBlend mode="normal" in2="BackgroundImageFix" result="effect1_dropShadow_156_78"/>
<feBlend mode="normal" in="SourceGraphic" in2="effect1_dropShadow_156_78" result="shape"/>
<feColorMatrix in="SourceAlpha" type="matrix" values="0 0 0 0 0 0 0 0 0 0 0 0 0 0 0 0 0 0 127 0" result="hardAlpha"/>
<feOffset dy="4"/>
<feGaussianBlur stdDeviation="12.5"/>
<feComposite in2="hardAlpha" operator="arithmetic" k2="-1" k3="1"/>
<feColorMatrix type="matrix" values="0 0 0 0 0 0 0 0 0 0 0 0 0 0 0 0 0 0 0.35 0"/>
<feBlend mode="normal" in2="shape" result="effect2_innerShadow_156_78"/>
</filter>
<filter id="filter2_d_156_78" x="29" y="5" width="76" height="64" filterUnits="userSpaceOnUse" color-interpolation-filters="sRGB">
<feFlood flood-opacity="0" result="BackgroundImageFix"/>
<feColorMatrix in="SourceAlpha" type="matrix" values="0 0 0 0 0 0 0 0 0 0 0 0 0 0 0 0 0 0 127 0" result="hardAlpha"/>
<feOffset dy="4"/>
<feGaussianBlur stdDeviation="5"/>
<feComposite in2="hardAlpha" operator="out"/>
<feColorMatrix type="matrix" values="0 0 0 0 0 0 0 0 0 0 0 0 0 0 0 0 0 0 0.1 0"/>
<feBlend mode="normal" in2="BackgroundImageFix" result="effect1_dropShadow_156_78"/>
<feBlend mode="normal" in="SourceGraphic" in2="effect1_dropShadow_156_78" result="shape"/>
</filter>
<filter id="filter3_d_156_78" x="30" y="7" width="76" height="64" filterUnits="userSpaceOnUse" color-interpolation-filters="sRGB">
<feFlood flood-opacity="0" result="BackgroundImageFix"/>
<feColorMatrix in="SourceAlpha" type="matrix" values="0 0 0 0 0 0 0 0 0 0 0 0 0 0 0 0 0 0 127 0" result="hardAlpha"/>
<feOffset dy="4"/>
<feGaussianBlur stdDeviation="5"/>
<feComposite in2="hardAlpha" operator="out"/>
<feColorMatrix type="matrix" values="0 0 0 0 0 0 0 0 0 0 0 0 0 0 0 0 0 0 0.1 0"/>
<feBlend mode="normal" in2="BackgroundImageFix" result="effect1_dropShadow_156_78"/>
<feBlend mode="normal" in="SourceGraphic" in2="effect1_dropShadow_156_78" result="shape"/>
</filter>
<filter id="filter4_b_156_78" x="23" y="-17" width="88" height="80" filterUnits="userSpaceOnUse" color-interpolation-filters="sRGB">
<feFlood flood-opacity="0" result="BackgroundImageFix"/>
<feGaussianBlur in="BackgroundImage" stdDeviation="12.5"/>
<feComposite in2="SourceAlpha" operator="in" result="effect1_backgroundBlur_156_78"/>
<feBlend mode="normal" in="SourceGraphic" in2="effect1_backgroundBlur_156_78" result="shape"/>
</filter>
<filter id="filter5_bd_156_78" x="23" y="-17" width="88" height="80" filterUnits="userSpaceOnUse" color-interpolation-filters="sRGB">
<feFlood flood-opacity="0" result="BackgroundImageFix"/>
<feGaussianBlur in="BackgroundImage" stdDeviation="12.5"/>
<feComposite in2="SourceAlpha" operator="in" result="effect1_backgroundBlur_156_78"/>
<feColorMatrix in="SourceAlpha" type="matrix" values="0 0 0 0 0 0 0 0 0 0 0 0 0 0 0 0 0 0 127 0" result="hardAlpha"/>
<feOffset dy="4"/>
<feGaussianBlur stdDeviation="5"/>
<feComposite in2="hardAlpha" operator="out"/>
<feColorMatrix type="matrix" values="0 0 0 0 0 0 0 0 0 0 0 0 0 0 0 0 0 0 0.1 0"/>
<feBlend mode="normal" in2="effect1_backgroundBlur_156_78" result="effect2_dropShadow_156_78"/>
<feBlend mode="normal" in="SourceGraphic" in2="effect2_dropShadow_156_78" result="shape"/>
</filter>
</defs>
</svg>
