<svg width="59" height="58" viewBox="0 0 59 58" fill="none" xmlns="http://www.w3.org/2000/svg">
<g filter="url(#filter0_i_340_2)">
<ellipse cx="29.5" cy="29" rx="29.5" ry="29" fill="url(#paint0_linear_340_2)"/>
</g>
<path d="M58 29C58 44.4479 45.2563 57 29.5 57C13.7437 57 1 44.4479 1 29C1 13.5521 13.7437 1 29.5 1C45.2563 1 58 13.5521 58 29Z" stroke="#E9BA42" stroke-width="2"/>
<path fill-rule="evenodd" clip-rule="evenodd" d="M39.2971 30.2646L39.7167 30.9519L39.7437 30.9931C39.8742 31.2046 39.9573 31.4425 39.9875 31.6903C40.0174 31.9381 39.9936 32.1894 39.9175 32.4266C39.8411 32.664 39.7147 32.8812 39.5466 33.0634C39.3788 33.2456 39.1733 33.3881 38.9452 33.4808L38.1874 33.7969C37.7772 33.967 37.4215 34.2502 37.161 34.6144C36.9005 34.9786 36.7451 35.4094 36.7124 35.8585L36.6449 36.6693C36.6223 36.9173 36.5475 37.1571 36.4261 37.3734C36.3044 37.5897 36.1388 37.7767 35.9402 37.9226C35.7415 38.0685 35.5145 38.1692 35.2744 38.2187C35.034 38.2679 34.7862 38.2645 34.5474 38.2086L33.7491 38.0162C33.3152 37.915 32.8626 37.9341 32.4388 38.0719C32.015 38.2097 31.6355 38.4612 31.3403 38.7996L30.8127 39.4043C30.6501 39.5914 30.4503 39.7414 30.2262 39.844C30.0022 39.9469 29.7593 40 29.5135 40C29.2677 40 29.0249 39.9469 28.8011 39.844C28.577 39.7414 28.377 39.5914 28.2146 39.4043L27.6867 38.7996C27.3915 38.4612 27.0121 38.2097 26.5884 38.0719C26.1643 37.9341 25.7117 37.915 25.2781 38.0162L24.4798 38.2086C24.2408 38.2645 23.993 38.2679 23.7528 38.2187C23.5127 38.1692 23.2855 38.0685 23.0868 37.9226C22.8881 37.7767 22.7225 37.5897 22.6011 37.3734C22.4795 37.1571 22.4049 36.9173 22.3823 36.6693H22.3551L22.2876 35.8585C22.2699 35.395 22.1215 34.9466 21.8599 34.5665C21.5984 34.1864 21.2348 33.8905 20.8126 33.7143L20.0548 33.3981C19.8267 33.3057 19.6212 33.163 19.4534 32.981C19.2853 32.7988 19.1589 32.5814 19.0827 32.3442C19.0064 32.1069 18.9826 31.8555 19.0125 31.6077C19.0426 31.3601 19.1258 31.1222 19.2563 30.9107L19.6758 30.2235C19.908 29.8388 20.0308 29.3966 20.0308 28.9454C20.0308 28.4942 19.908 28.052 19.6758 27.6673L19.2563 26.98C19.1258 26.7685 19.0426 26.5306 19.0125 26.2828C18.9826 26.0353 19.0064 25.7838 19.0827 25.5466C19.1589 25.3094 19.2853 25.0919 19.4534 24.9097C19.6212 24.7275 19.8267 24.5851 20.0548 24.4923L20.8126 24.1762C21.2228 24.0062 21.5785 23.7229 21.839 23.3587C22.0995 22.9945 22.2549 22.5638 22.2876 22.1147L22.3822 21.345C22.4047 21.0958 22.4794 20.8542 22.6018 20.637C22.7241 20.4196 22.8913 20.2316 23.0913 20.0855C23.2916 19.9397 23.5204 19.8391 23.7623 19.7908C24.0043 19.7425 24.2535 19.7475 24.4931 19.8058L25.2917 19.9983C25.7253 20.0996 26.178 20.0803 26.6018 19.9424C27.0256 19.8046 27.4051 19.5531 27.7003 19.2149L28.2281 18.6099C28.3881 18.4187 28.5872 18.2653 28.8115 18.1599C29.0358 18.0545 29.28 18 29.5271 18C29.7743 18 30.0185 18.0545 30.2428 18.1599C30.4671 18.2653 30.6662 18.4187 30.8261 18.6099L31.354 19.2149C31.6491 19.5531 32.0286 19.8046 32.4524 19.9424C32.8763 20.0802 33.3289 20.0996 33.7625 19.9983L34.5611 19.8058C34.794 19.7565 35.0344 19.7567 35.2672 19.8067C35.5001 19.8568 35.7201 19.9553 35.9133 20.0961C36.1068 20.2369 36.2692 20.4169 36.3907 20.6249C36.5119 20.8328 36.5893 21.0641 36.6179 21.3038L36.6856 22.1147C36.7108 22.5709 36.8628 23.0106 37.1237 23.3826C37.3847 23.7549 37.7442 24.0444 38.1606 24.2176L38.9184 24.5338C39.1465 24.6263 39.3517 24.7689 39.5198 24.9509C39.6877 25.1331 39.8143 25.3505 39.8904 25.5877C39.9666 25.825 39.9906 26.0764 39.9607 26.324C39.9305 26.5718 39.8474 26.8097 39.7167 27.0212L39.2971 27.7084C39.0652 28.0931 38.9424 28.5356 38.9424 28.9865C38.9424 29.4377 39.0652 29.88 39.2971 30.2646ZM36.0461 33.7631C36.4573 33.1952 37.0161 32.7546 37.6599 32.4912L38.4583 32.2301C38.5051 32.2135 38.5475 32.1861 38.5822 32.1502C38.6171 32.1143 38.6431 32.0708 38.659 32.023C38.6746 31.9753 38.6791 31.9245 38.6726 31.8746C38.666 31.8249 38.6483 31.7772 38.6207 31.7354L38.2011 30.9243C37.8355 30.3261 37.6418 29.6358 37.6418 28.9315C37.6418 28.2273 37.8355 27.5372 38.2011 26.9388L38.6207 26.2377C38.6377 26.1956 38.6458 26.1503 38.6449 26.1045C38.6438 26.059 38.6334 26.0141 38.6143 25.9727C38.5951 25.9313 38.5679 25.8944 38.5339 25.8643C38.5002 25.8344 38.4605 25.8118 38.4177 25.798L37.6733 25.4819C37.0295 25.2184 36.4706 24.7781 36.0597 24.21C35.6482 23.6419 35.4013 22.9687 35.3458 22.266L35.2783 21.4549C35.2724 21.4034 35.2554 21.3539 35.2289 21.3095C35.2022 21.2653 35.1664 21.2276 35.124 21.1988C35.0814 21.1701 35.0332 21.151 34.9829 21.1429C34.9324 21.1351 34.8807 21.1383 34.8316 21.1526L34.0469 21.3314C33.3738 21.4947 32.6695 21.4669 32.0107 21.2513C31.352 21.0355 30.7643 20.64 30.3119 20.108L29.7707 19.5033C29.7365 19.4649 29.6946 19.4343 29.6482 19.4134C29.6015 19.3924 29.5512 19.3816 29.5 19.3816C29.449 19.3816 29.3987 19.3924 29.3521 19.4134C29.3056 19.4343 29.2637 19.4649 29.2295 19.5033L28.7017 20.108C28.2493 20.64 27.6618 21.0355 27.0031 21.2513C26.3446 21.4669 25.64 21.4947 24.967 21.3314L24.182 21.1526C24.1331 21.1383 24.0814 21.1351 24.0309 21.1429C23.9806 21.151 23.9324 21.1701 23.8898 21.1988C23.8474 21.2276 23.8116 21.2653 23.7849 21.3095C23.7582 21.3539 23.7414 21.4034 23.7355 21.4549L23.6408 22.266C23.5758 22.959 23.3244 23.6205 22.9139 24.178C22.5034 24.7357 21.9495 25.1678 21.3133 25.4269L20.5692 25.743C20.5223 25.7596 20.4799 25.787 20.445 25.8229C20.4104 25.8588 20.3841 25.9023 20.3685 25.9501C20.3528 25.9977 20.3481 26.0486 20.3546 26.0985C20.3614 26.1482 20.3791 26.1961 20.4067 26.2377L20.8263 27.0488C21.1917 27.647 21.3854 28.3373 21.3854 29.0415C21.3854 29.7458 21.1917 30.4359 20.8263 31.0343L20.4067 31.7354C20.3893 31.7765 20.3805 31.8212 20.3807 31.866C20.3809 31.9111 20.3902 31.9556 20.4079 31.9967C20.4258 32.0379 20.4516 32.075 20.484 32.1056C20.5162 32.1364 20.5544 32.1599 20.5961 32.1751L21.3403 32.4912C21.9843 32.7547 22.5432 33.1953 22.9542 33.7631C23.3654 34.3312 23.6125 35.0044 23.668 35.7073L23.7355 36.5182C23.7419 36.5681 23.7584 36.6162 23.7842 36.6592C23.8098 36.7025 23.8445 36.7395 23.8853 36.768C23.9263 36.7966 23.9725 36.8159 24.0214 36.8251C24.0704 36.8341 24.1204 36.8327 24.1687 36.8205L24.9534 36.6417C25.6264 36.4784 26.331 36.5062 26.9895 36.722C27.6483 36.9376 28.2359 37.3329 28.6881 37.8651L29.2159 38.4698C29.2501 38.5082 29.292 38.5388 29.3385 38.5597C29.3852 38.5807 29.4357 38.5915 29.4866 38.5915C29.5376 38.5915 29.5879 38.5807 29.6346 38.5597C29.6812 38.5388 29.7229 38.5082 29.7571 38.4698L30.2986 37.8651C30.751 37.3329 31.3384 36.9376 31.9971 36.722C32.6559 36.5062 33.3602 36.4784 34.0333 36.6417L34.8182 36.8205C34.8674 36.8348 34.9188 36.838 34.9693 36.8302C35.0198 36.8221 35.0679 36.8033 35.1104 36.7743C35.1528 36.7455 35.1886 36.7078 35.2153 36.6636C35.2421 36.6194 35.2588 36.5697 35.2647 36.5182L35.3325 35.7073C35.3877 35.0044 35.6349 34.3312 36.0461 33.7631ZM27.75 29.5C27.75 28.5335 28.5335 27.75 29.5 27.75C30.4665 27.75 31.25 28.5335 31.25 29.5C31.25 30.4665 30.4665 31.25 29.5 31.25C28.5335 31.25 27.75 30.4665 27.75 29.5ZM29.5 26.25C27.7051 26.25 26.25 27.7051 26.25 29.5C26.25 31.2949 27.7051 32.75 29.5 32.75C31.2949 32.75 32.75 31.2949 32.75 29.5C32.75 27.7051 31.2949 26.25 29.5 26.25Z" fill="#E9BA42"/>
<defs>
<filter id="filter0_i_340_2" x="0" y="0" width="59" height="62" filterUnits="userSpaceOnUse" color-interpolation-filters="sRGB">
<feFlood flood-opacity="0" result="BackgroundImageFix"/>
<feBlend mode="normal" in="SourceGraphic" in2="BackgroundImageFix" result="shape"/>
<feColorMatrix in="SourceAlpha" type="matrix" values="0 0 0 0 0 0 0 0 0 0 0 0 0 0 0 0 0 0 127 0" result="hardAlpha"/>
<feOffset dy="4"/>
<feGaussianBlur stdDeviation="12.5"/>
<feComposite in2="hardAlpha" operator="arithmetic" k2="-1" k3="1"/>
<feColorMatrix type="matrix" values="0 0 0 0 0 0 0 0 0 0 0 0 0 0 0 0 0 0 0.35 0"/>
<feBlend mode="normal" in2="shape" result="effect1_innerShadow_340_2"/>
</filter>
<linearGradient id="paint0_linear_340_2" x1="153.5" y1="-136" x2="14.5" y2="53.5" gradientUnits="userSpaceOnUse">
<stop stop-color="#E9BA42"/>
<stop offset="1" stop-color="#E9BA42" stop-opacity="0"/>
</linearGradient>
</defs>
</svg>
