<svg width="18" height="15" viewBox="0 0 18 15" fill="none" xmlns="http://www.w3.org/2000/svg">
<path opacity="0.2" d="M5.07303 14.9942C6.55074 15.0406 8.02338 14.8086 9.4039 14.3121C10.7844 13.8156 12.0448 13.0645 13.1106 12.1033C14.1764 11.1421 15.0259 9.9903 15.609 8.71591C16.1921 7.44152 16.4969 6.07043 16.5055 4.68367C17.1827 3.89764 17.6855 2.99258 17.9845 2.02168C18.0068 1.94497 18.005 1.86385 17.9793 1.78807C17.9536 1.7123 17.9051 1.64512 17.8396 1.5946C17.7742 1.54409 17.6945 1.51241 17.6103 1.50337C17.5261 1.49432 17.4408 1.50831 17.3649 1.54365C17.0106 1.7036 16.6118 1.75527 16.2245 1.69137C15.8373 1.62747 15.4811 1.45123 15.2063 1.18746C14.8555 0.827137 14.4312 0.536523 13.9584 0.33284C13.4856 0.129158 12.9741 0.0165504 12.4541 0.00169107C11.9341 -0.0131682 11.4162 0.0700228 10.9311 0.246335C10.446 0.422646 10.0036 0.688492 9.63001 1.02812C9.11855 1.49271 8.74392 2.0735 8.54254 2.71405C8.34117 3.3546 8.31989 4.03312 8.48077 4.68367C5.13299 4.87113 2.83451 3.38079 0.995721 1.33743C0.940481 1.27876 0.868219 1.23644 0.787762 1.21565C0.707304 1.19485 0.622131 1.19649 0.542646 1.22034C0.46316 1.2442 0.392801 1.28925 0.34016 1.34999C0.28752 1.41073 0.254877 1.48454 0.246216 1.56239C-0.104082 3.38494 0.14861 5.26438 0.970356 6.9483C1.7921 8.63222 3.14355 10.04 4.84318 10.9825C3.70357 12.2083 2.1032 12.974 0.376131 13.1196C0.283604 13.1339 0.19819 13.1751 0.131844 13.2373C0.0654969 13.2995 0.0215382 13.3796 0.00611911 13.4663C-0.00929994 13.5531 0.00459264 13.6422 0.0458525 13.7212C0.0871123 13.8002 0.153674 13.8651 0.236223 13.9069C1.73875 14.6112 3.39337 14.9831 5.07303 14.9942Z" fill="white"/>
</svg>
