<svg width="19" height="23" viewBox="0 0 19 23" fill="none" xmlns="http://www.w3.org/2000/svg">
<path opacity="0.3" d="M12 9.33327L8.66667 14L7 11.6666L7.23805 11.3334L8.66667 13.3335L11.7616 9L11.9997 9.33374L12 9.33327Z" fill="white"/>
<path opacity="0.1" d="M18.4911 4.11212C16.9534 3.6906 15.4512 3.14288 13.9989 2.47424C12.5702 1.83764 11.1909 1.0897 9.87321 0.23697L9.5 0L9.13357 0.243939C7.81589 1.09667 6.43663 1.84461 5.00786 2.48121C3.5532 3.14782 2.04871 3.69322 0.508929 4.11212L0 4.24455V10.0573C0 19.3897 9.18107 22.8815 9.26929 22.9164L9.5 23L9.73071 22.9164C9.82571 22.9164 19 19.3967 19 10.0573V4.24455L18.4911 4.11212ZM17.6429 10.0573C17.6429 17.7239 10.8571 20.937 9.5 21.5085C8.14286 20.937 1.35714 17.717 1.35714 10.0573V5.32485C2.78857 4.90218 4.18978 4.3782 5.55071 3.75667C6.91174 3.15239 8.23121 2.45381 9.5 1.66576C10.7688 2.45381 12.0883 3.15239 13.4493 3.75667C14.8102 4.3782 16.2114 4.90218 17.6429 5.32485V10.0573Z" fill="white"/>
</svg>
