<svg width="59" height="58" viewBox="0 0 59 58" fill="none" xmlns="http://www.w3.org/2000/svg">
<g filter="url(#filter0_i_156_55)">
<ellipse cx="29.5" cy="29" rx="29.5" ry="29" fill="url(#paint0_linear_156_55)"/>
</g>
<path d="M58 29C58 44.4479 45.2563 57 29.5 57C13.7437 57 1 44.4479 1 29C1 13.5521 13.7437 1 29.5 1C45.2563 1 58 13.5521 58 29Z" stroke="#E0E3E3" stroke-width="2"/>
<path fill-rule="evenodd" clip-rule="evenodd" d="M31.5 22C30.9477 22 30.5 22.4477 30.5 23V28.5H25C24.4477 28.5 24 28.9477 24 29.5C24 30.0523 24.4477 30.5 25 30.5H30.5V36C30.5 36.5523 30.9477 37 31.5 37C32.0523 37 32.5 36.5523 32.5 36V30.5H38C38.5523 30.5 39 30.0523 39 29.5C39 28.9477 38.5523 28.5 38 28.5H32.5V23C32.5 22.4477 32.0523 22 31.5 22Z" fill="url(#paint1_linear_156_55)"/>
<path fill-rule="evenodd" clip-rule="evenodd" d="M30 21C29.4477 21 29 21.4477 29 22V27.5H23.5C22.9477 27.5 22.5 27.9477 22.5 28.5C22.5 29.0523 22.9477 29.5 23.5 29.5H29V35C29 35.5523 29.4477 36 30 36C30.5523 36 31 35.5523 31 35V29.5H36.5C37.0523 29.5 37.5 29.0523 37.5 28.5C37.5 27.9477 37.0523 27.5 36.5 27.5H31V22C31 21.4477 30.5523 21 30 21Z" fill="#E0E3E3"/>
<defs>
<filter id="filter0_i_156_55" x="0" y="0" width="59" height="62" filterUnits="userSpaceOnUse" color-interpolation-filters="sRGB">
<feFlood flood-opacity="0" result="BackgroundImageFix"/>
<feBlend mode="normal" in="SourceGraphic" in2="BackgroundImageFix" result="shape"/>
<feColorMatrix in="SourceAlpha" type="matrix" values="0 0 0 0 0 0 0 0 0 0 0 0 0 0 0 0 0 0 127 0" result="hardAlpha"/>
<feOffset dy="4"/>
<feGaussianBlur stdDeviation="12.5"/>
<feComposite in2="hardAlpha" operator="arithmetic" k2="-1" k3="1"/>
<feColorMatrix type="matrix" values="0 0 0 0 0 0 0 0 0 0 0 0 0 0 0 0 0 0 0.35 0"/>
<feBlend mode="normal" in2="shape" result="effect1_innerShadow_156_55"/>
</filter>
<linearGradient id="paint0_linear_156_55" x1="121" y1="-81.5" x2="18.5" y2="52.5" gradientUnits="userSpaceOnUse">
<stop stop-color="#E0E3E3"/>
<stop offset="1" stop-color="#E0E3E3" stop-opacity="0"/>
</linearGradient>
<linearGradient id="paint1_linear_156_55" x1="31.5" y1="22" x2="31.5" y2="37" gradientUnits="userSpaceOnUse">
<stop stop-color="#E0E3E3" stop-opacity="0.3"/>
<stop offset="1" stop-color="#E0E3E3" stop-opacity="0"/>
</linearGradient>
</defs>
</svg>
