<svg width="21" height="19" viewBox="0 0 21 19" fill="none" xmlns="http://www.w3.org/2000/svg">
<path opacity="0.2" d="M18.0599 12.9547C17.3533 12.9557 16.6705 13.2179 16.1363 13.6936C15.6022 14.1693 15.2522 14.8266 15.1504 15.5456H4.61998C3.61747 15.5456 2.65601 15.1362 1.94713 14.4073C1.23824 13.6785 0.839997 12.69 0.839997 11.6592C0.839997 10.6285 1.23824 9.63996 1.94713 8.91112C2.65601 8.18228 3.61747 7.77282 4.61998 7.77282H14.7C15.7025 7.77282 16.6639 7.36336 17.3728 6.63451C18.0817 5.90567 18.4799 4.91715 18.4799 3.88641C18.4799 2.85567 18.0817 1.86715 17.3728 1.1383C16.6639 0.40946 15.7025 1.53592e-08 14.7 0H4.61998C4.50859 0 4.40177 0.0454956 4.323 0.126478C4.24424 0.207461 4.19999 0.317296 4.19999 0.431823C4.19999 0.54635 4.24424 0.656185 4.323 0.737168C4.40177 0.818151 4.50859 0.863646 4.61998 0.863646H14.7C15.4797 0.863646 16.2275 1.18211 16.7788 1.74899C17.3302 2.31587 17.6399 3.08472 17.6399 3.88641C17.6399 4.68809 17.3302 5.45695 16.7788 6.02382C16.2275 6.5907 15.4797 6.90917 14.7 6.90917H4.61998C3.39469 6.90917 2.21958 7.40962 1.35316 8.30043C0.486747 9.19124 0 10.3994 0 11.6592C0 12.919 0.486747 14.1272 1.35316 15.018C2.21958 15.9088 3.39469 16.4093 4.61998 16.4093H15.1504C15.2309 16.9827 15.4701 17.5203 15.8393 17.958C16.2086 18.3956 16.6924 18.715 17.2331 18.878C17.7739 19.0409 18.3488 19.0407 18.8895 18.8772C19.4301 18.7138 19.9137 18.394 20.2826 17.956C20.6514 17.518 20.8901 16.9803 20.9702 16.4067C21.0502 15.8332 20.9683 15.2481 20.7341 14.7212C20.4999 14.1942 20.1233 13.7475 19.6492 13.4343C19.1751 13.1211 18.6235 12.9547 18.0599 12.9547ZM18.0599 18.1366C17.6446 18.1366 17.2386 18.0099 16.8932 17.7727C16.5479 17.5354 16.2787 17.1982 16.1198 16.8037C15.9609 16.4092 15.9193 15.9751 16.0003 15.5562C16.0813 15.1374 16.2813 14.7527 16.575 14.4507C16.8687 14.1488 17.2429 13.9431 17.6502 13.8598C18.0576 13.7765 18.4798 13.8193 18.8636 13.9827C19.2473 14.1461 19.5753 14.4228 19.806 14.7779C20.0368 15.133 20.1599 15.5504 20.1599 15.9775C20.1593 16.5499 19.9379 17.0987 19.5442 17.5035C19.1505 17.9083 18.6167 18.1359 18.0599 18.1366Z" fill="white"/>
</svg>
